<svg id="Layer_1" data-name="Layer 1" xmlns="http://www.w3.org/2000/svg" viewBox="0 0 56.17 56.17"><defs><style>.cls-1{fill:#ccc;}</style></defs><path id="Icon_awesome-caret-square-left" data-name="Icon awesome-caret-square-left" class="cls-1" d="M724.4,628H680.27a6,6,0,0,1-6-6h0V577.83a6,6,0,0,1,6-6H724.4a6,6,0,0,1,6,6h0V622a6,6,0,0,1-6,6Zm-17.61-44.57-15.43,15.42a1.51,1.51,0,0,0,0,2.13h0l15.43,15.43a1.5,1.5,0,0,0,2.57-1.07V584.47a1.5,1.5,0,0,0-2.57-1.06Z" transform="translate(-674.25 -571.81)"/></svg>