<svg id="Layer_1" data-name="Layer 1" xmlns="http://www.w3.org/2000/svg" viewBox="0 0 56.17 56.17"><defs><style>.cls-1{fill:#ccc;}</style></defs><path id="Icon_awesome-caret-square-left" data-name="Icon awesome-caret-square-left" class="cls-1" d="M680.27,571.81H724.4a6,6,0,0,1,6,6h0V622a6,6,0,0,1-6,6H680.27a6,6,0,0,1-6-6h0V577.83a6,6,0,0,1,6-6Zm17.61,44.58L713.31,601a1.49,1.49,0,0,0,0-2.12h0l-15.43-15.42a1.5,1.5,0,0,0-2.57,1.06v30.85a1.51,1.51,0,0,0,1.49,1.52A1.5,1.5,0,0,0,697.88,616.39Z" transform="translate(-674.25 -571.81)"/></svg>