<svg id="Layer_1" data-name="Layer 1" xmlns="http://www.w3.org/2000/svg" viewBox="0 0 753.84 1026.13"><defs><style>.cls-1{fill:#fff;}</style></defs><path id="Path_2164" data-name="Path 2164" class="cls-1" d="M1042.69,141.22a6,6,0,0,1-12,.17v-.15a6,6,0,1,1,12-.17Z" transform="translate(-317.78 -27.83)"/><path id="Path_2062" data-name="Path 2062" class="cls-1" d="M1030.7,162.45c0,.12,0,.24,0,.36s0,.25,0,.37a6,6,0,1,0,12,.14v-.15c0-.13,0-.25,0-.37s0-.24,0-.37a6,6,0,1,0-12-.14Z" transform="translate(-317.78 -27.83)"/><path id="Path_2165" data-name="Path 2165" class="cls-1" d="M1053.32,152a4.23,4.23,0,1,1-4.23-4.22A4.23,4.23,0,0,1,1053.32,152Z" transform="translate(-317.78 -27.83)"/><path id="Path_2166" data-name="Path 2166" class="cls-1" d="M1053.35,130.9a4.23,4.23,0,1,1-4.24-4.23A4.23,4.23,0,0,1,1053.35,130.9Z" transform="translate(-317.78 -27.83)"/><path id="Path_2167" data-name="Path 2167" class="cls-1" d="M1053.37,109.84a4.23,4.23,0,1,1-4.23-4.23A4.22,4.22,0,0,1,1053.37,109.84Z" transform="translate(-317.78 -27.83)"/><path id="Path_2168" data-name="Path 2168" class="cls-1" d="M1053.4,88.77a4.23,4.23,0,1,1-4.24-4.22A4.23,4.23,0,0,1,1053.4,88.77Z" transform="translate(-317.78 -27.83)"/><path id="Path_2169" data-name="Path 2169" class="cls-1" d="M1053.42,67.71a4.23,4.23,0,1,1-4.23-4.23A4.23,4.23,0,0,1,1053.42,67.71Z" transform="translate(-317.78 -27.83)"/><path id="Path_2170" data-name="Path 2170" class="cls-1" d="M1053.45,46.65a4.23,4.23,0,1,1-4.24-4.23A4.23,4.23,0,0,1,1053.45,46.65Z" transform="translate(-317.78 -27.83)"/><path id="Path_2171" data-name="Path 2171" class="cls-1" d="M1062.56,58.05a2.63,2.63,0,1,1-5.25,0h0a2.63,2.63,0,0,1,5.25,0Z" transform="translate(-317.78 -27.83)"/><path id="Path_2172" data-name="Path 2172" class="cls-1" d="M1062.51,37.5a2.63,2.63,0,1,1-5.25,0h0a2.63,2.63,0,0,1,5.25,0Z" transform="translate(-317.78 -27.83)"/><path id="Path_2173" data-name="Path 2173" class="cls-1" d="M1071.61,46.81a1.28,1.28,0,0,1-2.55.07v-.07a1.28,1.28,0,1,1,2.55-.07A.08.08,0,0,1,1071.61,46.81Z" transform="translate(-317.78 -27.83)"/><path id="Path_2174" data-name="Path 2174" class="cls-1" d="M1071.59,67.72a1.28,1.28,0,1,1-2.55.08v-.08a1.28,1.28,0,1,1,2.55-.07Z" transform="translate(-317.78 -27.83)"/><path id="Path_2175" data-name="Path 2175" class="cls-1" d="M1071.56,88.64a1.28,1.28,0,0,1-2.55.07v-.07a1.28,1.28,0,1,1,2.55-.07A.09.09,0,0,1,1071.56,88.64Z" transform="translate(-317.78 -27.83)"/><path id="Path_2176" data-name="Path 2176" class="cls-1" d="M1071.54,109.56a1.28,1.28,0,0,1-2.55.07v-.07a1.28,1.28,0,1,1,2.55-.08Z" transform="translate(-317.78 -27.83)"/><path id="Path_2177" data-name="Path 2177" class="cls-1" d="M1071.51,130.47a1.28,1.28,0,0,1-2.55.07v-.07a1.28,1.28,0,1,1,2.55-.07A.09.09,0,0,1,1071.51,130.47Z" transform="translate(-317.78 -27.83)"/><path id="Path_2178" data-name="Path 2178" class="cls-1" d="M1071.49,151.39a1.28,1.28,0,1,1-2.55.07v-.07a1.28,1.28,0,1,1,2.55-.07Z" transform="translate(-317.78 -27.83)"/><path id="Path_2179" data-name="Path 2179" class="cls-1" d="M1062.46,79a2.63,2.63,0,1,1-5.25,0h0a2.63,2.63,0,0,1,5.25,0Z" transform="translate(-317.78 -27.83)"/><path id="Path_2180" data-name="Path 2180" class="cls-1" d="M1062.36,100a2.63,2.63,0,1,1-5.25,0h0a2.63,2.63,0,0,1,5.25,0Z" transform="translate(-317.78 -27.83)"/><path id="Path_2181" data-name="Path 2181" class="cls-1" d="M1062.26,121a2.63,2.63,0,1,1-5.25,0h0a2.63,2.63,0,0,1,5.25,0Z" transform="translate(-317.78 -27.83)"/><path id="Path_2182" data-name="Path 2182" class="cls-1" d="M1062.17,142a2.63,2.63,0,0,1-5.26,0h0a2.63,2.63,0,0,1,5.26,0Z" transform="translate(-317.78 -27.83)"/><path id="Path_2063" data-name="Path 2063" class="cls-1" d="M1056.81,163a2.69,2.69,0,0,0,.92,2,2.62,2.62,0,0,0,2,.93,2.66,2.66,0,0,0,1.71-4.67,2.62,2.62,0,0,0-2-.93A2.65,2.65,0,0,0,1056.81,163Z" transform="translate(-317.78 -27.83)"/><path id="Path_2183" data-name="Path 2183" class="cls-1" d="M1042.71,120.45a6,6,0,1,1-12,.17v-.15a6,6,0,1,1,12-.17Z" transform="translate(-317.78 -27.83)"/><path id="Path_2184" data-name="Path 2184" class="cls-1" d="M1042.74,99.68a6,6,0,0,1-12,.17V99.7a6,6,0,1,1,12-.17Z" transform="translate(-317.78 -27.83)"/><path id="Path_2185" data-name="Path 2185" class="cls-1" d="M1042.76,78.92a6,6,0,1,1-12,.16v-.15a6,6,0,1,1,12-.17Z" transform="translate(-317.78 -27.83)"/><path id="Path_2186" data-name="Path 2186" class="cls-1" d="M1042.79,58.15a6,6,0,0,1-12,.16v-.15a6,6,0,0,1,12-.17Z" transform="translate(-317.78 -27.83)"/><path id="Path_2187" data-name="Path 2187" class="cls-1" d="M1042.81,37.38a6,6,0,0,1-12,.17v-.16a6,6,0,0,1,12-.17Z" transform="translate(-317.78 -27.83)"/><path id="Path_2188" data-name="Path 2188" class="cls-1" d="M1042.54,267a6,6,0,0,1-12,.17V267a6,6,0,1,1,12-.17Z" transform="translate(-317.78 -27.83)"/><path id="Path_2189" data-name="Path 2189" class="cls-1" d="M1053.17,277.75a4.23,4.23,0,1,1-4.23-4.22A4.23,4.23,0,0,1,1053.17,277.75Z" transform="translate(-317.78 -27.83)"/><path id="Path_2190" data-name="Path 2190" class="cls-1" d="M1053.2,256.69a4.23,4.23,0,1,1-4.24-4.23A4.23,4.23,0,0,1,1053.2,256.69Z" transform="translate(-317.78 -27.83)"/><path id="Path_2191" data-name="Path 2191" class="cls-1" d="M1053.23,235.63a4.24,4.24,0,1,1-4.24-4.23A4.23,4.23,0,0,1,1053.23,235.63Z" transform="translate(-317.78 -27.83)"/><path id="Path_2192" data-name="Path 2192" class="cls-1" d="M1053.25,214.56a4.23,4.23,0,1,1-4.24-4.22A4.23,4.23,0,0,1,1053.25,214.56Z" transform="translate(-317.78 -27.83)"/><path id="Path_2193" data-name="Path 2193" class="cls-1" d="M1053.28,193.5a4.24,4.24,0,1,1-4.24-4.23A4.23,4.23,0,0,1,1053.28,193.5Z" transform="translate(-317.78 -27.83)"/><path id="Path_2194" data-name="Path 2194" class="cls-1" d="M1053.3,172.44a4.23,4.23,0,1,1-4.24-4.23A4.23,4.23,0,0,1,1053.3,172.44Z" transform="translate(-317.78 -27.83)"/><path id="Path_2195" data-name="Path 2195" class="cls-1" d="M1062.41,183.84a2.63,2.63,0,0,1-5.25,0h0a2.63,2.63,0,0,1,5.25,0Z" transform="translate(-317.78 -27.83)"/><path id="Path_2196" data-name="Path 2196" class="cls-1" d="M1071.46,172.6a1.28,1.28,0,0,1-2.55.07v-.07a1.28,1.28,0,1,1,2.55-.07A.08.08,0,0,1,1071.46,172.6Z" transform="translate(-317.78 -27.83)"/><path id="Path_2197" data-name="Path 2197" class="cls-1" d="M1071.44,193.51a1.28,1.28,0,1,1-2.55.08v-.08a1.28,1.28,0,1,1,2.55-.07Z" transform="translate(-317.78 -27.83)"/><path id="Path_2198" data-name="Path 2198" class="cls-1" d="M1071.41,214.43a1.28,1.28,0,0,1-2.55.07v-.07a1.28,1.28,0,1,1,2.55-.07A.09.09,0,0,1,1071.41,214.43Z" transform="translate(-317.78 -27.83)"/><path id="Path_2199" data-name="Path 2199" class="cls-1" d="M1071.39,235.35a1.28,1.28,0,0,1-2.55.07v-.07a1.28,1.28,0,1,1,2.55-.08Z" transform="translate(-317.78 -27.83)"/><path id="Path_2200" data-name="Path 2200" class="cls-1" d="M1071.37,256.26a1.28,1.28,0,0,1-2.56.07v-.07a1.28,1.28,0,0,1,2.56-.07Z" transform="translate(-317.78 -27.83)"/><path id="Path_2201" data-name="Path 2201" class="cls-1" d="M1071.34,277.18a1.28,1.28,0,0,1-2.55.07v-.07a1.28,1.28,0,1,1,2.55-.07Z" transform="translate(-317.78 -27.83)"/><path id="Path_2202" data-name="Path 2202" class="cls-1" d="M1062.31,204.83a2.63,2.63,0,1,1-5.25,0h0a2.63,2.63,0,0,1,5.25,0Z" transform="translate(-317.78 -27.83)"/><path id="Path_2203" data-name="Path 2203" class="cls-1" d="M1062.21,225.82a2.63,2.63,0,1,1-5.25,0h0a2.63,2.63,0,0,1,5.25,0Z" transform="translate(-317.78 -27.83)"/><path id="Path_2204" data-name="Path 2204" class="cls-1" d="M1062.11,246.81a2.63,2.63,0,1,1-5.25,0h0a2.63,2.63,0,0,1,5.25,0Z" transform="translate(-317.78 -27.83)"/><path id="Path_2205" data-name="Path 2205" class="cls-1" d="M1062,267.8a2.63,2.63,0,1,1-5.26,0h0a2.63,2.63,0,1,1,5.26,0Z" transform="translate(-317.78 -27.83)"/><path id="Path_2206" data-name="Path 2206" class="cls-1" d="M1042.56,246.24a6,6,0,1,1-12,.17v-.15a6,6,0,1,1,12-.17Z" transform="translate(-317.78 -27.83)"/><path id="Path_2207" data-name="Path 2207" class="cls-1" d="M1042.59,225.47a6,6,0,0,1-12,.17v-.15a6,6,0,1,1,12-.17Z" transform="translate(-317.78 -27.83)"/><path id="Path_2208" data-name="Path 2208" class="cls-1" d="M1042.61,204.71a6,6,0,1,1-12,.16v-.15a6,6,0,1,1,12-.17Z" transform="translate(-317.78 -27.83)"/><path id="Path_2209" data-name="Path 2209" class="cls-1" d="M1042.64,183.94a6,6,0,0,1-12,.16V184a6,6,0,0,1,12-.17Z" transform="translate(-317.78 -27.83)"/><path id="Path_2210" data-name="Path 2210" class="cls-1" d="M1042.39,391.92a6,6,0,0,1-12,.17v-.16a6,6,0,0,1,12-.17Z" transform="translate(-317.78 -27.83)"/><path id="Path_2064" data-name="Path 2064" class="cls-1" d="M1030.4,413.14c0,.13,0,.25,0,.37a2.32,2.32,0,0,1,0,.37,6,6,0,1,0,12,.14v-.15c0-.13,0-.25,0-.37s0-.25,0-.37a6,6,0,0,0-12-.14Z" transform="translate(-317.78 -27.83)"/><path id="Path_2211" data-name="Path 2211" class="cls-1" d="M1053,402.66a4.24,4.24,0,1,1-4.24-4.23A4.23,4.23,0,0,1,1053,402.66Z" transform="translate(-317.78 -27.83)"/><path id="Path_2212" data-name="Path 2212" class="cls-1" d="M1053.05,381.59a4.23,4.23,0,1,1-4.23-4.22A4.23,4.23,0,0,1,1053.05,381.59Z" transform="translate(-317.78 -27.83)"/><path id="Path_2213" data-name="Path 2213" class="cls-1" d="M1053.08,360.53a4.24,4.24,0,1,1-4.24-4.22A4.24,4.24,0,0,1,1053.08,360.53Z" transform="translate(-317.78 -27.83)"/><path id="Path_2214" data-name="Path 2214" class="cls-1" d="M1053.1,339.47a4.23,4.23,0,1,1-4.23-4.23A4.22,4.22,0,0,1,1053.1,339.47Z" transform="translate(-317.78 -27.83)"/><path id="Path_2215" data-name="Path 2215" class="cls-1" d="M1053.13,318.41a4.24,4.24,0,1,1-4.24-4.23A4.23,4.23,0,0,1,1053.13,318.41Z" transform="translate(-317.78 -27.83)"/><path id="Path_2216" data-name="Path 2216" class="cls-1" d="M1053.15,297.34a4.23,4.23,0,1,1-4.23-4.22A4.23,4.23,0,0,1,1053.15,297.34Z" transform="translate(-317.78 -27.83)"/><path id="Path_2217" data-name="Path 2217" class="cls-1" d="M1062.26,308.75a2.63,2.63,0,0,1-5.25,0h0a2.63,2.63,0,1,1,5.25,0Z" transform="translate(-317.78 -27.83)"/><path id="Path_2065" data-name="Path 2065" class="cls-1" d="M1057.11,287.31a2.71,2.71,0,0,0-.45,1.48,2.62,2.62,0,0,0,5.1.89,2.68,2.68,0,0,0,.45-1.48,2.62,2.62,0,0,0-5.1-.89Z" transform="translate(-317.78 -27.83)"/><path id="Path_2218" data-name="Path 2218" class="cls-1" d="M1071.32,297.5a1.28,1.28,0,1,1-2.56.08v-.08a1.28,1.28,0,0,1,2.56-.07Z" transform="translate(-317.78 -27.83)"/><path id="Path_2219" data-name="Path 2219" class="cls-1" d="M1071.29,318.42a1.28,1.28,0,0,1-2.55.07v-.07a1.28,1.28,0,1,1,2.55-.07Z" transform="translate(-317.78 -27.83)"/><path id="Path_2220" data-name="Path 2220" class="cls-1" d="M1071.27,339.34a1.28,1.28,0,0,1-2.56.07v-.07a1.28,1.28,0,0,1,2.56-.08Z" transform="translate(-317.78 -27.83)"/><path id="Path_2221" data-name="Path 2221" class="cls-1" d="M1071.24,360.25a1.28,1.28,0,0,1-2.55.07v-.07a1.28,1.28,0,1,1,2.55-.07Z" transform="translate(-317.78 -27.83)"/><path id="Path_2222" data-name="Path 2222" class="cls-1" d="M1071.22,381.17a1.28,1.28,0,0,1-2.56.07v-.07a1.28,1.28,0,0,1,2.56-.07Z" transform="translate(-317.78 -27.83)"/><path id="Path_2223" data-name="Path 2223" class="cls-1" d="M1071.19,402.08a1.28,1.28,0,1,1-2.55.08v-.08a1.28,1.28,0,1,1,2.55-.07Z" transform="translate(-317.78 -27.83)"/><path id="Path_2224" data-name="Path 2224" class="cls-1" d="M1062.16,329.74a2.63,2.63,0,0,1-5.25,0h0a2.63,2.63,0,1,1,5.25,0Z" transform="translate(-317.78 -27.83)"/><path id="Path_2225" data-name="Path 2225" class="cls-1" d="M1062.06,350.72a2.63,2.63,0,1,1-5.25,0h0a2.63,2.63,0,0,1,5.25,0Z" transform="translate(-317.78 -27.83)"/><path id="Path_2226" data-name="Path 2226" class="cls-1" d="M1062,371.71a2.63,2.63,0,0,1-5.26,0h0a2.63,2.63,0,0,1,5.26,0Z" transform="translate(-317.78 -27.83)"/><path id="Path_2227" data-name="Path 2227" class="cls-1" d="M1061.87,392.7a2.63,2.63,0,1,1-5.25,0h0a2.63,2.63,0,0,1,5.25,0Z" transform="translate(-317.78 -27.83)"/><path id="Path_2066" data-name="Path 2066" class="cls-1" d="M1056.51,413.7a2.67,2.67,0,0,0,.92,2,2.62,2.62,0,0,0,2,.93,2.66,2.66,0,0,0,2.63-2.68,2.69,2.69,0,0,0-.92-2,2.62,2.62,0,0,0-2-.93A2.65,2.65,0,0,0,1056.51,413.7Z" transform="translate(-317.78 -27.83)"/><path id="Path_2228" data-name="Path 2228" class="cls-1" d="M1042.41,371.15a6,6,0,1,1-12,.17v-.16a6,6,0,0,1,12-.16A.38.38,0,0,1,1042.41,371.15Z" transform="translate(-317.78 -27.83)"/><path id="Path_2229" data-name="Path 2229" class="cls-1" d="M1042.44,350.38a6,6,0,1,1-12,.17.43.43,0,0,1,0-.16,6,6,0,1,1,12-.16Z" transform="translate(-317.78 -27.83)"/><path id="Path_2230" data-name="Path 2230" class="cls-1" d="M1042.46,329.61a6,6,0,1,1-12,.17v-.15a6,6,0,1,1,12-.17Z" transform="translate(-317.78 -27.83)"/><path id="Path_2231" data-name="Path 2231" class="cls-1" d="M1042.49,308.84a6,6,0,1,1-12,.17.38.38,0,0,1,0-.15,6,6,0,1,1,12-.17Z" transform="translate(-317.78 -27.83)"/><path id="Path_2067" data-name="Path 2067" class="cls-1" d="M1030.55,288.09v.15a6,6,0,0,0,12,.14v-.31a6,6,0,1,0-12-.13Z" transform="translate(-317.78 -27.83)"/><path id="Path_2232" data-name="Path 2232" class="cls-1" d="M1042.24,517.71a6,6,0,0,1-12,.17v-.16a6,6,0,0,1,12-.17Z" transform="translate(-317.78 -27.83)"/><path id="Path_2233" data-name="Path 2233" class="cls-1" d="M1052.88,528.45a4.24,4.24,0,1,1-4.24-4.23A4.23,4.23,0,0,1,1052.88,528.45Z" transform="translate(-317.78 -27.83)"/><path id="Path_2234" data-name="Path 2234" class="cls-1" d="M1052.9,507.38a4.23,4.23,0,1,1-4.23-4.22A4.23,4.23,0,0,1,1052.9,507.38Z" transform="translate(-317.78 -27.83)"/><path id="Path_2235" data-name="Path 2235" class="cls-1" d="M1052.93,486.32a4.24,4.24,0,1,1-4.24-4.22A4.24,4.24,0,0,1,1052.93,486.32Z" transform="translate(-317.78 -27.83)"/><path id="Path_2236" data-name="Path 2236" class="cls-1" d="M1053,465.26a4.23,4.23,0,1,1-4.23-4.23A4.22,4.22,0,0,1,1053,465.26Z" transform="translate(-317.78 -27.83)"/><path id="Path_2237" data-name="Path 2237" class="cls-1" d="M1053,444.2a4.24,4.24,0,1,1-4.24-4.23A4.23,4.23,0,0,1,1053,444.2Z" transform="translate(-317.78 -27.83)"/><path id="Path_2238" data-name="Path 2238" class="cls-1" d="M1053,423.13a4.23,4.23,0,1,1-4.23-4.22A4.23,4.23,0,0,1,1053,423.13Z" transform="translate(-317.78 -27.83)"/><path id="Path_2239" data-name="Path 2239" class="cls-1" d="M1062.11,434.54a2.63,2.63,0,0,1-5.25,0h0a2.63,2.63,0,1,1,5.25,0Z" transform="translate(-317.78 -27.83)"/><path id="Path_2240" data-name="Path 2240" class="cls-1" d="M1071.17,423.29a1.28,1.28,0,1,1-2.56.08v-.08a1.28,1.28,0,0,1,2.56-.07Z" transform="translate(-317.78 -27.83)"/><path id="Path_2241" data-name="Path 2241" class="cls-1" d="M1071.14,444.21a1.28,1.28,0,0,1-2.55.07v-.07a1.28,1.28,0,1,1,2.55-.07Z" transform="translate(-317.78 -27.83)"/><path id="Path_2242" data-name="Path 2242" class="cls-1" d="M1071.12,465.13a1.28,1.28,0,0,1-2.56.07v-.07a1.28,1.28,0,0,1,2.56-.08Z" transform="translate(-317.78 -27.83)"/><path id="Path_2243" data-name="Path 2243" class="cls-1" d="M1071.09,486a1.28,1.28,0,0,1-2.55.07V486a1.28,1.28,0,1,1,2.55-.07Z" transform="translate(-317.78 -27.83)"/><path id="Path_2244" data-name="Path 2244" class="cls-1" d="M1071.07,507a1.28,1.28,0,0,1-2.56.07V507a1.28,1.28,0,0,1,2.56-.07Z" transform="translate(-317.78 -27.83)"/><path id="Path_2245" data-name="Path 2245" class="cls-1" d="M1071,527.87a1.28,1.28,0,1,1-2.55.08v-.08a1.28,1.28,0,0,1,2.55-.07Z" transform="translate(-317.78 -27.83)"/><path id="Path_2246" data-name="Path 2246" class="cls-1" d="M1062,455.53a2.63,2.63,0,0,1-5.25,0h0a2.63,2.63,0,1,1,5.25,0Z" transform="translate(-317.78 -27.83)"/><path id="Path_2247" data-name="Path 2247" class="cls-1" d="M1061.91,476.52a2.63,2.63,0,0,1-5.25,0h0a2.63,2.63,0,1,1,5.25,0Z" transform="translate(-317.78 -27.83)"/><path id="Path_2248" data-name="Path 2248" class="cls-1" d="M1061.82,497.5a2.63,2.63,0,0,1-5.26,0h0a2.63,2.63,0,0,1,5.26,0Z" transform="translate(-317.78 -27.83)"/><path id="Path_2249" data-name="Path 2249" class="cls-1" d="M1061.72,518.49a2.63,2.63,0,0,1-5.25,0h0a2.63,2.63,0,0,1,5.25,0Z" transform="translate(-317.78 -27.83)"/><path id="Path_2250" data-name="Path 2250" class="cls-1" d="M1042.26,496.94a6,6,0,1,1-12,.17V497a6,6,0,0,1,12-.16A.38.38,0,0,1,1042.26,496.94Z" transform="translate(-317.78 -27.83)"/><path id="Path_2251" data-name="Path 2251" class="cls-1" d="M1042.29,476.17a6,6,0,1,1-12,.17v-.16a6,6,0,1,1,12-.16Z" transform="translate(-317.78 -27.83)"/><path id="Path_2252" data-name="Path 2252" class="cls-1" d="M1042.31,455.4a6,6,0,1,1-12,.17v-.15a6,6,0,1,1,12-.17Z" transform="translate(-317.78 -27.83)"/><path id="Path_2253" data-name="Path 2253" class="cls-1" d="M1042.34,434.63a6,6,0,1,1-12,.17.38.38,0,0,1,0-.15,6,6,0,1,1,12-.17Z" transform="translate(-317.78 -27.83)"/><path id="Path_2254" data-name="Path 2254" class="cls-1" d="M1042.09,642.61a6,6,0,1,1-12,.17v-.15a6,6,0,1,1,12-.17Z" transform="translate(-317.78 -27.83)"/><path id="Path_2068" data-name="Path 2068" class="cls-1" d="M1030.1,663.84c0,.12,0,.24,0,.37a2.17,2.17,0,0,1,0,.36,6,6,0,1,0,12,.15.43.43,0,0,0,0-.16c0-.12,0-.24,0-.37s0-.24,0-.37a6,6,0,0,0-12-.14Z" transform="translate(-317.78 -27.83)"/><path id="Path_2255" data-name="Path 2255" class="cls-1" d="M1052.73,653.35a4.23,4.23,0,1,1-4.24-4.22A4.23,4.23,0,0,1,1052.73,653.35Z" transform="translate(-317.78 -27.83)"/><path id="Path_2256" data-name="Path 2256" class="cls-1" d="M1052.75,632.29a4.23,4.23,0,1,1-4.23-4.22A4.23,4.23,0,0,1,1052.75,632.29Z" transform="translate(-317.78 -27.83)"/><path id="Path_2257" data-name="Path 2257" class="cls-1" d="M1052.78,611.23a4.23,4.23,0,1,1-4.24-4.23A4.23,4.23,0,0,1,1052.78,611.23Z" transform="translate(-317.78 -27.83)"/><path id="Path_2258" data-name="Path 2258" class="cls-1" d="M1052.8,590.16a4.23,4.23,0,1,1-4.23-4.22A4.23,4.23,0,0,1,1052.8,590.16Z" transform="translate(-317.78 -27.83)"/><path id="Path_2259" data-name="Path 2259" class="cls-1" d="M1052.83,569.1a4.23,4.23,0,1,1-4.24-4.22A4.24,4.24,0,0,1,1052.83,569.1Z" transform="translate(-317.78 -27.83)"/><path id="Path_2260" data-name="Path 2260" class="cls-1" d="M1052.85,548a4.23,4.23,0,1,1-4.23-4.23A4.22,4.22,0,0,1,1052.85,548Z" transform="translate(-317.78 -27.83)"/><path id="Path_2261" data-name="Path 2261" class="cls-1" d="M1062,559.44a2.63,2.63,0,1,1-5.25,0h0a2.63,2.63,0,0,1,5.25,0Z" transform="translate(-317.78 -27.83)"/><path id="Path_2069" data-name="Path 2069" class="cls-1" d="M1056.81,538a2.68,2.68,0,0,0-.45,1.48,2.62,2.62,0,0,0,5.1.88,2.58,2.58,0,0,0,.45-1.48,2.62,2.62,0,0,0-5.1-.88Z" transform="translate(-317.78 -27.83)"/><path id="Path_2262" data-name="Path 2262" class="cls-1" d="M1071,548.2a1.28,1.28,0,0,1-2.56.07v-.07a1.28,1.28,0,0,1,2.56-.07Z" transform="translate(-317.78 -27.83)"/><path id="Path_2263" data-name="Path 2263" class="cls-1" d="M1071,569.12a1.28,1.28,0,1,1-2.55.07v-.07a1.28,1.28,0,1,1,2.55-.07Z" transform="translate(-317.78 -27.83)"/><path id="Path_2264" data-name="Path 2264" class="cls-1" d="M1071,590a1.28,1.28,0,1,1-2.55.07.08.08,0,0,1,0-.07A1.28,1.28,0,1,1,1071,590Z" transform="translate(-317.78 -27.83)"/><path id="Path_2265" data-name="Path 2265" class="cls-1" d="M1070.94,611a1.28,1.28,0,0,1-2.55.07V611a1.28,1.28,0,0,1,2.55-.07Z" transform="translate(-317.78 -27.83)"/><path id="Path_2266" data-name="Path 2266" class="cls-1" d="M1070.92,631.86a1.28,1.28,0,1,1-2.55.08.11.11,0,0,1,0-.08,1.28,1.28,0,1,1,2.55-.07Z" transform="translate(-317.78 -27.83)"/><path id="Path_2267" data-name="Path 2267" class="cls-1" d="M1070.89,652.78a1.28,1.28,0,0,1-2.55.07v-.07a1.28,1.28,0,1,1,2.55-.07Z" transform="translate(-317.78 -27.83)"/><path id="Path_2268" data-name="Path 2268" class="cls-1" d="M1061.86,580.43a2.63,2.63,0,0,1-5.25,0h0a2.63,2.63,0,0,1,5.25,0Z" transform="translate(-317.78 -27.83)"/><path id="Path_2269" data-name="Path 2269" class="cls-1" d="M1061.77,601.42a2.63,2.63,0,0,1-5.26,0h0a2.63,2.63,0,0,1,5.26,0Z" transform="translate(-317.78 -27.83)"/><path id="Path_2270" data-name="Path 2270" class="cls-1" d="M1061.67,622.41a2.63,2.63,0,0,1-5.25,0h0a2.63,2.63,0,0,1,5.25,0Z" transform="translate(-317.78 -27.83)"/><path id="Path_2271" data-name="Path 2271" class="cls-1" d="M1061.57,643.4a2.63,2.63,0,1,1-5.25,0h0a2.63,2.63,0,0,1,5.25,0Z" transform="translate(-317.78 -27.83)"/><path id="Path_2070" data-name="Path 2070" class="cls-1" d="M1056.22,664.4a3.19,3.19,0,0,0,2.91,2.94,2.66,2.66,0,0,0,1.71-4.67,2.59,2.59,0,0,0-2-.93A2.65,2.65,0,0,0,1056.22,664.4Z" transform="translate(-317.78 -27.83)"/><path id="Path_2272" data-name="Path 2272" class="cls-1" d="M1042.12,621.85a6,6,0,0,1-12,.16v-.15a6,6,0,1,1,12-.17Z" transform="translate(-317.78 -27.83)"/><path id="Path_2273" data-name="Path 2273" class="cls-1" d="M1042.14,601.08a6,6,0,1,1-12,.16v-.15a6,6,0,0,1,12-.17Z" transform="translate(-317.78 -27.83)"/><path id="Path_2274" data-name="Path 2274" class="cls-1" d="M1042.17,580.31a6,6,0,0,1-12,.17v-.16a6,6,0,0,1,12-.17Z" transform="translate(-317.78 -27.83)"/><path id="Path_2275" data-name="Path 2275" class="cls-1" d="M1042.19,559.54a6,6,0,1,1-12,.17v-.16a6,6,0,1,1,12-.16Z" transform="translate(-317.78 -27.83)"/><path id="Path_2071" data-name="Path 2071" class="cls-1" d="M1030.25,538.78v.15a6,6,0,0,0,12,.14.38.38,0,0,0,0-.15v-.15a6,6,0,1,0-12-.14Z" transform="translate(-317.78 -27.83)"/><path id="Path_2276" data-name="Path 2276" class="cls-1" d="M1041.94,768.4a6,6,0,1,1-12,.17v-.15a6,6,0,1,1,12-.17Z" transform="translate(-317.78 -27.83)"/><path id="Path_2277" data-name="Path 2277" class="cls-1" d="M1052.58,779.14a4.23,4.23,0,1,1-4.24-4.22A4.23,4.23,0,0,1,1052.58,779.14Z" transform="translate(-317.78 -27.83)"/><path id="Path_2278" data-name="Path 2278" class="cls-1" d="M1052.6,758.08a4.23,4.23,0,1,1-4.23-4.22A4.23,4.23,0,0,1,1052.6,758.08Z" transform="translate(-317.78 -27.83)"/><path id="Path_2279" data-name="Path 2279" class="cls-1" d="M1052.63,737a4.23,4.23,0,1,1-4.24-4.23A4.23,4.23,0,0,1,1052.63,737Z" transform="translate(-317.78 -27.83)"/><path id="Path_2280" data-name="Path 2280" class="cls-1" d="M1052.65,716a4.23,4.23,0,1,1-4.23-4.22A4.23,4.23,0,0,1,1052.65,716Z" transform="translate(-317.78 -27.83)"/><path id="Path_2281" data-name="Path 2281" class="cls-1" d="M1052.68,694.89a4.23,4.23,0,1,1-4.24-4.22A4.24,4.24,0,0,1,1052.68,694.89Z" transform="translate(-317.78 -27.83)"/><path id="Path_2282" data-name="Path 2282" class="cls-1" d="M1052.7,673.83a4.23,4.23,0,1,1-4.23-4.23A4.22,4.22,0,0,1,1052.7,673.83Z" transform="translate(-317.78 -27.83)"/><path id="Path_2283" data-name="Path 2283" class="cls-1" d="M1061.81,685.23a2.63,2.63,0,1,1-5.25,0h0a2.63,2.63,0,0,1,5.25,0Z" transform="translate(-317.78 -27.83)"/><path id="Path_2284" data-name="Path 2284" class="cls-1" d="M1070.87,674a1.28,1.28,0,0,1-2.55.07.09.09,0,0,1,0-.07,1.28,1.28,0,0,1,2.55-.07Z" transform="translate(-317.78 -27.83)"/><path id="Path_2285" data-name="Path 2285" class="cls-1" d="M1070.84,694.91a1.28,1.28,0,1,1-2.55.07v-.07a1.28,1.28,0,1,1,2.55-.07Z" transform="translate(-317.78 -27.83)"/><path id="Path_2286" data-name="Path 2286" class="cls-1" d="M1070.82,715.82a1.28,1.28,0,0,1-2.55.07.08.08,0,0,1,0-.07,1.28,1.28,0,0,1,2.55-.07Z" transform="translate(-317.78 -27.83)"/><path id="Path_2287" data-name="Path 2287" class="cls-1" d="M1070.79,736.74a1.28,1.28,0,0,1-2.55.07v-.07a1.28,1.28,0,0,1,2.55-.07Z" transform="translate(-317.78 -27.83)"/><path id="Path_2288" data-name="Path 2288" class="cls-1" d="M1070.77,757.65a1.28,1.28,0,1,1-2.55.08.11.11,0,0,1,0-.08,1.28,1.28,0,1,1,2.55-.07Z" transform="translate(-317.78 -27.83)"/><path id="Path_2289" data-name="Path 2289" class="cls-1" d="M1070.74,778.57a1.28,1.28,0,0,1-2.55.07v-.07a1.28,1.28,0,1,1,2.55-.07Z" transform="translate(-317.78 -27.83)"/><path id="Path_2290" data-name="Path 2290" class="cls-1" d="M1061.71,706.22a2.63,2.63,0,1,1-5.25,0h0a2.63,2.63,0,0,1,5.25,0Z" transform="translate(-317.78 -27.83)"/><path id="Path_2291" data-name="Path 2291" class="cls-1" d="M1061.62,727.21a2.63,2.63,0,0,1-5.26,0h0a2.63,2.63,0,0,1,5.26,0Z" transform="translate(-317.78 -27.83)"/><path id="Path_2292" data-name="Path 2292" class="cls-1" d="M1061.52,748.2a2.63,2.63,0,1,1-5.25,0h0a2.63,2.63,0,0,1,5.25,0Z" transform="translate(-317.78 -27.83)"/><path id="Path_2293" data-name="Path 2293" class="cls-1" d="M1061.42,769.19a2.63,2.63,0,1,1-5.25,0h0a2.63,2.63,0,0,1,5.25,0Z" transform="translate(-317.78 -27.83)"/><path id="Path_2294" data-name="Path 2294" class="cls-1" d="M1042,747.64a6,6,0,0,1-12,.16v-.15a6,6,0,1,1,12-.17Z" transform="translate(-317.78 -27.83)"/><path id="Path_2295" data-name="Path 2295" class="cls-1" d="M1042,726.87a6,6,0,0,1-12,.17v-.16a6,6,0,0,1,12-.17Z" transform="translate(-317.78 -27.83)"/><path id="Path_2296" data-name="Path 2296" class="cls-1" d="M1042,706.1a6,6,0,0,1-12,.17v-.16a6,6,0,0,1,12-.17Z" transform="translate(-317.78 -27.83)"/><path id="Path_2297" data-name="Path 2297" class="cls-1" d="M1042,685.33a6,6,0,1,1-12,.17v-.16a6,6,0,1,1,12-.16Z" transform="translate(-317.78 -27.83)"/><path id="Path_2298" data-name="Path 2298" class="cls-1" d="M1041.79,893.31a6,6,0,1,1-12,.17v-.16a6,6,0,0,1,12-.16Z" transform="translate(-317.78 -27.83)"/><path id="Path_2072" data-name="Path 2072" class="cls-1" d="M1029.8,914.53a2.23,2.23,0,0,0,0,.37c0,.12,0,.25,0,.37a6,6,0,0,0,12,.14v-.15a2.23,2.23,0,0,0,0-.37c0-.12,0-.25,0-.37a6,6,0,0,0-12-.14Z" transform="translate(-317.78 -27.83)"/><path id="Path_2299" data-name="Path 2299" class="cls-1" d="M1052.43,904.05a4.23,4.23,0,1,1-4.24-4.23A4.24,4.24,0,0,1,1052.43,904.05Z" transform="translate(-317.78 -27.83)"/><path id="Path_2300" data-name="Path 2300" class="cls-1" d="M1052.46,883a4.24,4.24,0,1,1-4.24-4.23A4.23,4.23,0,0,1,1052.46,883Z" transform="translate(-317.78 -27.83)"/><path id="Path_2301" data-name="Path 2301" class="cls-1" d="M1052.48,861.92a4.23,4.23,0,1,1-4.24-4.22A4.23,4.23,0,0,1,1052.48,861.92Z" transform="translate(-317.78 -27.83)"/><path id="Path_2302" data-name="Path 2302" class="cls-1" d="M1052.51,840.86a4.24,4.24,0,1,1-4.24-4.22A4.24,4.24,0,0,1,1052.51,840.86Z" transform="translate(-317.78 -27.83)"/><path id="Path_2303" data-name="Path 2303" class="cls-1" d="M1052.53,819.8a4.23,4.23,0,1,1-4.24-4.23A4.23,4.23,0,0,1,1052.53,819.8Z" transform="translate(-317.78 -27.83)"/><path id="Path_2304" data-name="Path 2304" class="cls-1" d="M1052.56,798.73a4.24,4.24,0,1,1-4.24-4.22A4.23,4.23,0,0,1,1052.56,798.73Z" transform="translate(-317.78 -27.83)"/><path id="Path_2305" data-name="Path 2305" class="cls-1" d="M1061.66,810.14a2.63,2.63,0,1,1-5.25,0h0a2.63,2.63,0,0,1,5.25,0Z" transform="translate(-317.78 -27.83)"/><path id="Path_2073" data-name="Path 2073" class="cls-1" d="M1056.51,788.71a2.65,2.65,0,0,0-.44,1.48,2.62,2.62,0,0,0,5.1.88,2.67,2.67,0,0,0,.44-1.48,2.62,2.62,0,0,0-5.1-.88Z" transform="translate(-317.78 -27.83)"/><path id="Path_2306" data-name="Path 2306" class="cls-1" d="M1070.72,798.9a1.28,1.28,0,0,1-2.55.07v-.07a1.28,1.28,0,1,1,2.55-.07Z" transform="translate(-317.78 -27.83)"/><path id="Path_2307" data-name="Path 2307" class="cls-1" d="M1070.69,819.81a1.28,1.28,0,0,1-2.55.07v-.07a1.28,1.28,0,1,1,2.55-.07A.08.08,0,0,1,1070.69,819.81Z" transform="translate(-317.78 -27.83)"/><path id="Path_2308" data-name="Path 2308" class="cls-1" d="M1070.67,840.73a1.28,1.28,0,0,1-1.24,1.31,1.27,1.27,0,0,1-1.31-1.24v-.07a1.28,1.28,0,1,1,2.55-.07Z" transform="translate(-317.78 -27.83)"/><path id="Path_2309" data-name="Path 2309" class="cls-1" d="M1070.65,861.64a1.28,1.28,0,0,1-2.56.08v-.08a1.28,1.28,0,0,1,2.56-.07Z" transform="translate(-317.78 -27.83)"/><path id="Path_2310" data-name="Path 2310" class="cls-1" d="M1070.62,882.56a1.28,1.28,0,0,1-2.55.07v-.07a1.28,1.28,0,1,1,2.55-.07Z" transform="translate(-317.78 -27.83)"/><path id="Path_2311" data-name="Path 2311" class="cls-1" d="M1070.6,903.48a1.28,1.28,0,0,1-2.56.07v-.07a1.28,1.28,0,1,1,2.56-.07Z" transform="translate(-317.78 -27.83)"/><path id="Path_2312" data-name="Path 2312" class="cls-1" d="M1061.56,831.13a2.63,2.63,0,1,1-5.25,0h0a2.63,2.63,0,0,1,5.25,0Z" transform="translate(-317.78 -27.83)"/><path id="Path_2313" data-name="Path 2313" class="cls-1" d="M1061.47,852.12a2.63,2.63,0,1,1-5.25,0h0a2.63,2.63,0,1,1,5.25,0Z" transform="translate(-317.78 -27.83)"/><path id="Path_2314" data-name="Path 2314" class="cls-1" d="M1061.37,873.11a2.63,2.63,0,1,1-5.25,0h0a2.63,2.63,0,1,1,5.25,0Z" transform="translate(-317.78 -27.83)"/><path id="Path_2315" data-name="Path 2315" class="cls-1" d="M1061.27,894.1a2.63,2.63,0,1,1-5.25,0h0a2.63,2.63,0,1,1,5.25,0Z" transform="translate(-317.78 -27.83)"/><path id="Path_2074" data-name="Path 2074" class="cls-1" d="M1055.92,915.09a2.65,2.65,0,0,0,.92,2,2.59,2.59,0,0,0,2,.93,2.66,2.66,0,0,0,1.71-4.67,2.59,2.59,0,0,0-2-.93A2.64,2.64,0,0,0,1055.92,915.09Z" transform="translate(-317.78 -27.83)"/><path id="Path_2316" data-name="Path 2316" class="cls-1" d="M1041.82,872.54a6,6,0,0,1-12,.17v-.15a6,6,0,1,1,12-.17Z" transform="translate(-317.78 -27.83)"/><path id="Path_2317" data-name="Path 2317" class="cls-1" d="M1041.84,851.77a6,6,0,1,1-12,.17v-.15a6,6,0,1,1,12-.17Z" transform="translate(-317.78 -27.83)"/><path id="Path_2318" data-name="Path 2318" class="cls-1" d="M1041.87,831a6,6,0,0,1-12,.17V831a6,6,0,1,1,12-.17Z" transform="translate(-317.78 -27.83)"/><path id="Path_2319" data-name="Path 2319" class="cls-1" d="M1041.89,810.24a6,6,0,1,1-12,.16v-.15a6,6,0,0,1,12-.17Z" transform="translate(-317.78 -27.83)"/><path id="Path_2075" data-name="Path 2075" class="cls-1" d="M1030,789.48v.15a6,6,0,0,0,12,.14v-.3a6,6,0,0,0-12-.14Z" transform="translate(-317.78 -27.83)"/><path id="Path_2320" data-name="Path 2320" class="cls-1" d="M1041.64,1019.1a6,6,0,1,1-12,.17v-.16a6,6,0,0,1,12-.16Z" transform="translate(-317.78 -27.83)"/><path id="Path_2321" data-name="Path 2321" class="cls-1" d="M1041.62,1040.31a6,6,0,1,1-12,.17.43.43,0,0,1,0-.16,6,6,0,1,1,12-.16Z" transform="translate(-317.78 -27.83)"/><path id="Path_2322" data-name="Path 2322" class="cls-1" d="M1052.28,1029.84a4.23,4.23,0,1,1-4.24-4.23A4.24,4.24,0,0,1,1052.28,1029.84Z" transform="translate(-317.78 -27.83)"/><path id="Path_2323" data-name="Path 2323" class="cls-1" d="M1052.31,1008.78a4.24,4.24,0,1,1-4.24-4.23A4.23,4.23,0,0,1,1052.31,1008.78Z" transform="translate(-317.78 -27.83)"/><path id="Path_2324" data-name="Path 2324" class="cls-1" d="M1052.33,987.71a4.23,4.23,0,1,1-4.24-4.22A4.23,4.23,0,0,1,1052.33,987.71Z" transform="translate(-317.78 -27.83)"/><path id="Path_2325" data-name="Path 2325" class="cls-1" d="M1052.36,966.65a4.24,4.24,0,1,1-4.24-4.22A4.24,4.24,0,0,1,1052.36,966.65Z" transform="translate(-317.78 -27.83)"/><path id="Path_2326" data-name="Path 2326" class="cls-1" d="M1052.38,945.59a4.23,4.23,0,1,1-4.24-4.23A4.23,4.23,0,0,1,1052.38,945.59Z" transform="translate(-317.78 -27.83)"/><path id="Path_2327" data-name="Path 2327" class="cls-1" d="M1052.41,924.52a4.24,4.24,0,1,1-4.24-4.22A4.23,4.23,0,0,1,1052.41,924.52Z" transform="translate(-317.78 -27.83)"/><path id="Path_2328" data-name="Path 2328" class="cls-1" d="M1061.51,935.93a2.63,2.63,0,1,1-5.25,0h0a2.63,2.63,0,0,1,5.25,0Z" transform="translate(-317.78 -27.83)"/><path id="Path_2329" data-name="Path 2329" class="cls-1" d="M1070.57,924.69a1.28,1.28,0,1,1-2.55.07v-.07a1.28,1.28,0,1,1,2.55-.07Z" transform="translate(-317.78 -27.83)"/><path id="Path_2330" data-name="Path 2330" class="cls-1" d="M1070.55,945.6a1.28,1.28,0,0,1-2.56.07v-.07a1.28,1.28,0,0,1,2.56-.07Z" transform="translate(-317.78 -27.83)"/><path id="Path_2331" data-name="Path 2331" class="cls-1" d="M1070.52,966.52a1.28,1.28,0,0,1-1.24,1.31,1.27,1.27,0,0,1-1.31-1.24v-.07a1.28,1.28,0,0,1,2.55-.07Z" transform="translate(-317.78 -27.83)"/><path id="Path_2332" data-name="Path 2332" class="cls-1" d="M1070.5,987.43a1.28,1.28,0,0,1-2.56.08v-.08a1.28,1.28,0,0,1,2.56-.07Z" transform="translate(-317.78 -27.83)"/><path id="Path_2333" data-name="Path 2333" class="cls-1" d="M1070.47,1008.35a1.28,1.28,0,1,1-2.55.07v-.07a1.28,1.28,0,0,1,2.55-.07Z" transform="translate(-317.78 -27.83)"/><path id="Path_2334" data-name="Path 2334" class="cls-1" d="M1070.45,1029.27a1.28,1.28,0,0,1-2.56.07v-.07a1.28,1.28,0,1,1,2.56-.07Z" transform="translate(-317.78 -27.83)"/><path id="Path_2335" data-name="Path 2335" class="cls-1" d="M1061.42,956.92a2.63,2.63,0,0,1-5.26,0h0a2.63,2.63,0,0,1,5.26,0Z" transform="translate(-317.78 -27.83)"/><path id="Path_2336" data-name="Path 2336" class="cls-1" d="M1061.32,977.91a2.63,2.63,0,1,1-5.25,0h0a2.63,2.63,0,1,1,5.25,0Z" transform="translate(-317.78 -27.83)"/><path id="Path_2337" data-name="Path 2337" class="cls-1" d="M1061.22,998.9a2.63,2.63,0,1,1-5.25,0h0a2.63,2.63,0,1,1,5.25,0Z" transform="translate(-317.78 -27.83)"/><path id="Path_2338" data-name="Path 2338" class="cls-1" d="M1061.12,1019.89a2.63,2.63,0,1,1-5.25,0h0a2.63,2.63,0,1,1,5.25,0Z" transform="translate(-317.78 -27.83)"/><path id="Path_2339" data-name="Path 2339" class="cls-1" d="M1061,1040.88a2.63,2.63,0,1,1-5.25,0h0a2.63,2.63,0,1,1,5.25,0Z" transform="translate(-317.78 -27.83)"/><path id="Path_2340" data-name="Path 2340" class="cls-1" d="M1041.67,998.33a6,6,0,1,1-12,.17.38.38,0,0,1,0-.15,6,6,0,1,1,12-.17Z" transform="translate(-317.78 -27.83)"/><path id="Path_2341" data-name="Path 2341" class="cls-1" d="M1041.69,977.56a6,6,0,1,1-12,.17v-.15a6,6,0,1,1,12-.17Z" transform="translate(-317.78 -27.83)"/><path id="Path_2342" data-name="Path 2342" class="cls-1" d="M1041.72,956.79a6,6,0,0,1-12,.17v-.15a6,6,0,1,1,12-.17Z" transform="translate(-317.78 -27.83)"/><path id="Path_2343" data-name="Path 2343" class="cls-1" d="M1041.74,936a6,6,0,1,1-12,.16V936a6,6,0,0,1,12-.17Z" transform="translate(-317.78 -27.83)"/><path id="Path_2076" data-name="Path 2076" class="cls-1" d="M1008.78,1051.69h.15a12.14,12.14,0,0,0,12-12.17,12.58,12.58,0,0,0-.1-1.62,8.55,8.55,0,0,0-.79-17,12.07,12.07,0,0,0,0-3.55,8.55,8.55,0,0,0,.1-17.07,12.07,12.07,0,0,0,0-3.55,8.55,8.55,0,0,0,.2-17.06,12.21,12.21,0,0,0-.08-3.57,8.55,8.55,0,0,0,.21-17,12,12,0,0,0,0-3.59,8.55,8.55,0,0,0,.13-17,12.56,12.56,0,0,0,.08-3.62,8.55,8.55,0,0,0,.26-17v0a12.33,12.33,0,0,1,.15-4.11,12.58,12.58,0,0,0-.1-1.62,8.55,8.55,0,0,0-.79-17,12.07,12.07,0,0,0,0-3.55,8.55,8.55,0,0,0,.1-17.07,12.42,12.42,0,0,0,0-3.55,8.55,8.55,0,0,0,.2-17.06,12.21,12.21,0,0,0-.08-3.57,8.55,8.55,0,0,0,.22-17,12.7,12.7,0,0,0,0-3.59,8.55,8.55,0,0,0,.12-17,12.21,12.21,0,0,0,.08-3.62,8.55,8.55,0,0,0,.27-17v0c0-.36,0-.71,0-1.06a12,12,0,0,0,.09-3.78,8.55,8.55,0,0,0-.78-17,12.42,12.42,0,0,0,0-3.55,8.55,8.55,0,0,0,.1-17.07,12.49,12.49,0,0,0,0-3.56,8.54,8.54,0,0,0,.2-17,12.56,12.56,0,0,0-.09-3.57,8.55,8.55,0,0,0,.21-17,12,12,0,0,0,0-3.59,8.55,8.55,0,0,0,.13-17,12.54,12.54,0,0,0,.08-3.62,8.55,8.55,0,0,0,.26-17v0a12.33,12.33,0,0,1,.15-4.11,12.32,12.32,0,0,0-.1-1.61,8.55,8.55,0,0,0-.79-17,12.07,12.07,0,0,0,0-3.55,8.55,8.55,0,0,0,.1-17.07,12.49,12.49,0,0,0,0-3.56,8.54,8.54,0,0,0,.2-17,12.21,12.21,0,0,0-.08-3.57,8.55,8.55,0,0,0,.22-17,12.7,12.7,0,0,0,0-3.59,8.55,8.55,0,0,0,.12-17,12.2,12.2,0,0,0,.08-3.62,8.55,8.55,0,0,0,.27-17v0c0-.36,0-.71,0-1.06a12.29,12.29,0,0,0,.08-3.78,8.55,8.55,0,0,0-.79-17,12.42,12.42,0,0,0,0-3.55,8.55,8.55,0,0,0,.1-17.07,12.49,12.49,0,0,0,0-3.56,8.54,8.54,0,0,0,.2-17.05,12.21,12.21,0,0,0-.08-3.57,8.55,8.55,0,0,0,.21-17,12,12,0,0,0,0-3.59,8.55,8.55,0,0,0,.13-17,12.14,12.14,0,0,0,.08-3.61,8.56,8.56,0,0,0,.27-17v0a27.37,27.37,0,0,1,0-5.72,8.55,8.55,0,0,0-.79-17,12.07,12.07,0,0,0,0-3.55,8.55,8.55,0,0,0,.1-17.07,12.49,12.49,0,0,0,0-3.56,8.54,8.54,0,0,0,.2-17.05,12.21,12.21,0,0,0-.08-3.57,8.55,8.55,0,0,0,.22-17.05,12.7,12.7,0,0,0,0-3.59,8.55,8.55,0,0,0,.12-17,12.2,12.2,0,0,0,.08-3.62,8.55,8.55,0,0,0,.27-17v0c0-.36,0-.71-.05-1.06a12,12,0,0,0,.09-3.78,8.55,8.55,0,0,0-.78-17,12.42,12.42,0,0,0,0-3.55,8.55,8.55,0,0,0,.1-17.07,12.42,12.42,0,0,0,0-3.55,8.55,8.55,0,0,0,.2-17.06,12.56,12.56,0,0,0-.09-3.57,8.55,8.55,0,0,0,.22-17,12.7,12.7,0,0,0,0-3.59,8.55,8.55,0,0,0,.13-17,12.13,12.13,0,0,0,.07-3.61,8.55,8.55,0,0,0,.27-17v0a12.6,12.6,0,0,0-.11-1.62,12.6,12.6,0,0,0,.16-4.11,8.55,8.55,0,0,0-.79-17,12.42,12.42,0,0,0,0-3.55,8.54,8.54,0,0,0,.09-17.06,12.14,12.14,0,0,0,0-3.56,8.54,8.54,0,0,0,.2-17,12.56,12.56,0,0,0-.08-3.57,8.55,8.55,0,0,0,.21-17,12,12,0,0,0,0-3.59,8.55,8.55,0,0,0,.13-17,12.48,12.48,0,0,0,.08-3.61,8.55,8.55,0,0,0,.26-17v0a12.05,12.05,0,0,0-12-12.13h-.56L319,28.67l-1.17,1023Z" transform="translate(-317.78 -27.83)"/><path id="Path_2350" data-name="Path 2350" class="cls-1" d="M1052.27,1049.73a4.23,4.23,0,1,1-4.24-4.23A4.23,4.23,0,0,1,1052.27,1049.73Z" transform="translate(-317.78 -27.83)"/><path id="Path_2352" data-name="Path 2352" class="cls-1" d="M1061.33,1040.58a2.63,2.63,0,0,1-5.25,0h0a2.63,2.63,0,1,1,5.25,0Z" transform="translate(-317.78 -27.83)"/><path id="Path_2353" data-name="Path 2353" class="cls-1" d="M1070.43,1049.89a1.28,1.28,0,1,1-2.55.07v-.07a1.28,1.28,0,1,1,2.55-.07Z" transform="translate(-317.78 -27.83)"/><path id="Path_2367" data-name="Path 2367" class="cls-1" d="M1041.63,1040.46a6,6,0,0,1-12,.17v-.16a6,6,0,0,1,12-.17Z" transform="translate(-317.78 -27.83)"/></svg>