<svg id="Layer_1" data-name="Layer 1" xmlns="http://www.w3.org/2000/svg" viewBox="0 0 751.28 1025.42"><defs><style>.cls-1{fill:#fff;}</style></defs><path id="Path_2681" data-name="Path 2681" class="cls-1" d="M401.25,1056.43a6,6,0,1,1,12,0h0a6,6,0,0,1-12,0Z" transform="translate(-372.42 -40.38)"/><path id="Path_2699" data-name="Path 2699" class="cls-1" d="M381.83,1055.87a2.63,2.63,0,1,1,2.63,2.63A2.63,2.63,0,0,1,381.83,1055.87Z" transform="translate(-372.42 -40.38)"/><path id="Path_2704" data-name="Path 2704" class="cls-1" d="M401.36,952.41a6,6,0,1,1,12,0h0a6,6,0,0,1-12,0Z" transform="translate(-372.42 -40.38)"/><path id="Path_2107" data-name="Path 2107" class="cls-1" d="M413.35,931.17c0-.12,0-.24,0-.37s0-.24,0-.36a6,6,0,1,0-12,0,2.36,2.36,0,0,0,0,.37c0,.12,0,.24,0,.36a6,6,0,1,0,12,0Z" transform="translate(-372.42 -40.38)"/><path id="Path_2705" data-name="Path 2705" class="cls-1" d="M390.72,941.68A4.23,4.23,0,1,1,395,945.9,4.23,4.23,0,0,1,390.72,941.68Z" transform="translate(-372.42 -40.38)"/><path id="Path_2706" data-name="Path 2706" class="cls-1" d="M390.69,962.74a4.24,4.24,0,1,1,4.24,4.23A4.25,4.25,0,0,1,390.69,962.74Z" transform="translate(-372.42 -40.38)"/><path id="Path_2707" data-name="Path 2707" class="cls-1" d="M390.67,983.81a4.23,4.23,0,1,1,4.24,4.23A4.23,4.23,0,0,1,390.67,983.81Z" transform="translate(-372.42 -40.38)"/><path id="Path_2708" data-name="Path 2708" class="cls-1" d="M390.64,1004.88a4.24,4.24,0,1,1,4.24,4.23A4.23,4.23,0,0,1,390.64,1004.88Z" transform="translate(-372.42 -40.38)"/><path id="Path_2709" data-name="Path 2709" class="cls-1" d="M390.62,1026a4.23,4.23,0,1,1,4.24,4.22A4.22,4.22,0,0,1,390.62,1026Z" transform="translate(-372.42 -40.38)"/><path id="Path_2710" data-name="Path 2710" class="cls-1" d="M390.59,1047a4.24,4.24,0,1,1,4.24,4.22A4.23,4.23,0,0,1,390.59,1047Z" transform="translate(-372.42 -40.38)"/><path id="Path_2711" data-name="Path 2711" class="cls-1" d="M381.48,1035.62a2.63,2.63,0,1,1,2.63,2.62A2.64,2.64,0,0,1,381.48,1035.62Z" transform="translate(-372.42 -40.38)"/><path id="Path_2712" data-name="Path 2712" class="cls-1" d="M381.53,1056.17a2.63,2.63,0,1,1,2.63,2.62A2.62,2.62,0,0,1,381.53,1056.17Z" transform="translate(-372.42 -40.38)"/><path id="Path_2713" data-name="Path 2713" class="cls-1" d="M372.42,1046.87a1.28,1.28,0,1,1,2.55-.07v.07a1.28,1.28,0,1,1-2.55.07Z" transform="translate(-372.42 -40.38)"/><path id="Path_2714" data-name="Path 2714" class="cls-1" d="M372.44,1026a1.28,1.28,0,0,1,2.56-.08v.08a1.28,1.28,0,0,1-2.56.07Z" transform="translate(-372.42 -40.38)"/><path id="Path_2715" data-name="Path 2715" class="cls-1" d="M372.47,1005A1.28,1.28,0,1,1,375,1005v.07a1.28,1.28,0,1,1-2.55.08Z" transform="translate(-372.42 -40.38)"/><path id="Path_2716" data-name="Path 2716" class="cls-1" d="M372.49,984.1a1.28,1.28,0,0,1,2.56-.07v.07a1.28,1.28,0,1,1-2.56.08Z" transform="translate(-372.42 -40.38)"/><path id="Path_2717" data-name="Path 2717" class="cls-1" d="M372.52,963.18a1.28,1.28,0,1,1,2.55-.07v.07a1.28,1.28,0,1,1-2.55.07Z" transform="translate(-372.42 -40.38)"/><path id="Path_2718" data-name="Path 2718" class="cls-1" d="M372.54,942.26a1.28,1.28,0,0,1,2.56-.07v.07a1.28,1.28,0,0,1-2.56.07Z" transform="translate(-372.42 -40.38)"/><path id="Path_2719" data-name="Path 2719" class="cls-1" d="M381.58,1014.62a2.63,2.63,0,1,1,2.63,2.62A2.62,2.62,0,0,1,381.58,1014.62Z" transform="translate(-372.42 -40.38)"/><path id="Path_2720" data-name="Path 2720" class="cls-1" d="M381.68,993.63a2.63,2.63,0,1,1,2.63,2.62A2.63,2.63,0,0,1,381.68,993.63Z" transform="translate(-372.42 -40.38)"/><path id="Path_2721" data-name="Path 2721" class="cls-1" d="M381.77,972.63a2.63,2.63,0,1,1,2.63,2.62A2.62,2.62,0,0,1,381.77,972.63Z" transform="translate(-372.42 -40.38)"/><path id="Path_2722" data-name="Path 2722" class="cls-1" d="M381.87,951.64a2.63,2.63,0,1,1,2.63,2.62A2.64,2.64,0,0,1,381.87,951.64Z" transform="translate(-372.42 -40.38)"/><path id="Path_2108" data-name="Path 2108" class="cls-1" d="M387.23,930.63a2.64,2.64,0,0,0-.93-2,2.59,2.59,0,0,0-2-.93,2.66,2.66,0,0,0-1.71,4.67,2.59,2.59,0,0,0,2,.93A2.65,2.65,0,0,0,387.23,930.63Z" transform="translate(-372.42 -40.38)"/><path id="Path_2723" data-name="Path 2723" class="cls-1" d="M401.33,973.18a6,6,0,0,1,12,0h0a6,6,0,1,1-12,0Z" transform="translate(-372.42 -40.38)"/><path id="Path_2724" data-name="Path 2724" class="cls-1" d="M401.31,994a6,6,0,1,1,12,0h0a6,6,0,0,1-12,0Z" transform="translate(-372.42 -40.38)"/><path id="Path_2725" data-name="Path 2725" class="cls-1" d="M401.28,1014.73a6,6,0,0,1,12,0h0a6,6,0,0,1-12,0Z" transform="translate(-372.42 -40.38)"/><path id="Path_2726" data-name="Path 2726" class="cls-1" d="M401.26,1035.51a6,6,0,1,1,12,0h0a6,6,0,0,1-12,0Z" transform="translate(-372.42 -40.38)"/><path id="Path_2727" data-name="Path 2727" class="cls-1" d="M401.24,1056.28a6,6,0,1,1,12,0h0a6,6,0,0,1-12,0Z" transform="translate(-372.42 -40.38)"/><path id="Path_2728" data-name="Path 2728" class="cls-1" d="M401.5,826.59a6,6,0,0,1,12,0h0a6,6,0,0,1-12,0Z" transform="translate(-372.42 -40.38)"/><path id="Path_2729" data-name="Path 2729" class="cls-1" d="M390.86,815.85a4.24,4.24,0,1,1,4.24,4.23A4.24,4.24,0,0,1,390.86,815.85Z" transform="translate(-372.42 -40.38)"/><path id="Path_2730" data-name="Path 2730" class="cls-1" d="M390.84,836.92a4.23,4.23,0,1,1,4.24,4.23A4.23,4.23,0,0,1,390.84,836.92Z" transform="translate(-372.42 -40.38)"/><path id="Path_2731" data-name="Path 2731" class="cls-1" d="M390.81,858a4.24,4.24,0,1,1,4.24,4.22A4.23,4.23,0,0,1,390.81,858Z" transform="translate(-372.42 -40.38)"/><path id="Path_2732" data-name="Path 2732" class="cls-1" d="M390.79,879.06a4.23,4.23,0,1,1,4.24,4.22A4.22,4.22,0,0,1,390.79,879.06Z" transform="translate(-372.42 -40.38)"/><path id="Path_2733" data-name="Path 2733" class="cls-1" d="M390.76,900.13a4.24,4.24,0,1,1,4.24,4.22A4.23,4.23,0,0,1,390.76,900.13Z" transform="translate(-372.42 -40.38)"/><path id="Path_2734" data-name="Path 2734" class="cls-1" d="M390.74,921.2a4.23,4.23,0,1,1,4.24,4.22A4.24,4.24,0,0,1,390.74,921.2Z" transform="translate(-372.42 -40.38)"/><path id="Path_2735" data-name="Path 2735" class="cls-1" d="M381.63,909.79a2.63,2.63,0,1,1,2.63,2.63A2.62,2.62,0,0,1,381.63,909.79Z" transform="translate(-372.42 -40.38)"/><path id="Path_2736" data-name="Path 2736" class="cls-1" d="M372.57,921.05a1.28,1.28,0,1,1,2.55-.08V921a1.28,1.28,0,1,1-2.55.08Z" transform="translate(-372.42 -40.38)"/><path id="Path_2737" data-name="Path 2737" class="cls-1" d="M372.59,900.12a1.28,1.28,0,0,1,2.55-.07.08.08,0,0,1,0,.07,1.28,1.28,0,1,1-2.55.08Z" transform="translate(-372.42 -40.38)"/><path id="Path_2738" data-name="Path 2738" class="cls-1" d="M372.61,879.2a1.28,1.28,0,0,1,2.56-.07v.07a1.28,1.28,0,1,1-2.56.07Z" transform="translate(-372.42 -40.38)"/><path id="Path_2739" data-name="Path 2739" class="cls-1" d="M372.64,858.28a1.28,1.28,0,0,1,2.55-.07v.07a1.28,1.28,0,1,1-2.55.07Z" transform="translate(-372.42 -40.38)"/><path id="Path_2740" data-name="Path 2740" class="cls-1" d="M372.66,837.36a1.28,1.28,0,0,1,2.56-.07v.07a1.28,1.28,0,0,1-2.56.07Z" transform="translate(-372.42 -40.38)"/><path id="Path_2741" data-name="Path 2741" class="cls-1" d="M372.69,816.44a1.28,1.28,0,0,1,2.55-.07v.07a1.28,1.28,0,1,1-2.55.07Z" transform="translate(-372.42 -40.38)"/><path id="Path_2742" data-name="Path 2742" class="cls-1" d="M381.72,888.8a2.63,2.63,0,1,1,2.64,2.62A2.63,2.63,0,0,1,381.72,888.8Z" transform="translate(-372.42 -40.38)"/><path id="Path_2743" data-name="Path 2743" class="cls-1" d="M381.82,867.8a2.63,2.63,0,1,1,2.63,2.63A2.62,2.62,0,0,1,381.82,867.8Z" transform="translate(-372.42 -40.38)"/><path id="Path_2744" data-name="Path 2744" class="cls-1" d="M381.92,846.81a2.63,2.63,0,1,1,2.63,2.62A2.62,2.62,0,0,1,381.92,846.81Z" transform="translate(-372.42 -40.38)"/><path id="Path_2745" data-name="Path 2745" class="cls-1" d="M382,825.81a2.63,2.63,0,1,1,2.63,2.63A2.62,2.62,0,0,1,382,825.81Z" transform="translate(-372.42 -40.38)"/><path id="Path_2746" data-name="Path 2746" class="cls-1" d="M401.48,847.36a6,6,0,0,1,12,0h0a6,6,0,0,1-12,0Z" transform="translate(-372.42 -40.38)"/><path id="Path_2747" data-name="Path 2747" class="cls-1" d="M401.46,868.13a6,6,0,1,1,12,0h0a6,6,0,1,1-12,0Z" transform="translate(-372.42 -40.38)"/><path id="Path_2748" data-name="Path 2748" class="cls-1" d="M401.43,888.91a6,6,0,1,1,12,0h0a6,6,0,0,1-12,0Z" transform="translate(-372.42 -40.38)"/><path id="Path_2749" data-name="Path 2749" class="cls-1" d="M401.41,909.68a6,6,0,0,1,12,0h0a6,6,0,1,1-12,0Z" transform="translate(-372.42 -40.38)"/><path id="Path_2750" data-name="Path 2750" class="cls-1" d="M401.65,701.65a6,6,0,1,1,12,0h0a6,6,0,0,1-12,0Z" transform="translate(-372.42 -40.38)"/><path id="Path_2109" data-name="Path 2109" class="cls-1" d="M413.64,680.41c0-.12,0-.25,0-.37s0-.24,0-.37a6,6,0,1,0-12,0c0,.12,0,.24,0,.36s0,.25,0,.37a6,6,0,1,0,12,0Z" transform="translate(-372.42 -40.38)"/><path id="Path_2751" data-name="Path 2751" class="cls-1" d="M391,690.91a4.23,4.23,0,1,1,4.24,4.23A4.23,4.23,0,0,1,391,690.91Z" transform="translate(-372.42 -40.38)"/><path id="Path_2752" data-name="Path 2752" class="cls-1" d="M391,712a4.24,4.24,0,1,1,4.24,4.23A4.24,4.24,0,0,1,391,712Z" transform="translate(-372.42 -40.38)"/><path id="Path_2753" data-name="Path 2753" class="cls-1" d="M391,733.05a4.23,4.23,0,1,1,4.24,4.23A4.23,4.23,0,0,1,391,733.05Z" transform="translate(-372.42 -40.38)"/><path id="Path_2754" data-name="Path 2754" class="cls-1" d="M390.93,754.12a4.24,4.24,0,1,1,4.24,4.22A4.23,4.23,0,0,1,390.93,754.12Z" transform="translate(-372.42 -40.38)"/><path id="Path_2755" data-name="Path 2755" class="cls-1" d="M390.91,775.19a4.23,4.23,0,1,1,4.24,4.22A4.23,4.23,0,0,1,390.91,775.19Z" transform="translate(-372.42 -40.38)"/><path id="Path_2756" data-name="Path 2756" class="cls-1" d="M390.88,796.26a4.24,4.24,0,1,1,4.25,4.22A4.23,4.23,0,0,1,390.88,796.26Z" transform="translate(-372.42 -40.38)"/><path id="Path_2757" data-name="Path 2757" class="cls-1" d="M381.77,784.86a2.63,2.63,0,1,1,2.63,2.62A2.63,2.63,0,0,1,381.77,784.86Z" transform="translate(-372.42 -40.38)"/><path id="Path_2110" data-name="Path 2110" class="cls-1" d="M386.92,806.29a2.63,2.63,0,1,0-4.65-2.36,2.68,2.68,0,0,0-.45,1.48,2.62,2.62,0,0,0,5.1.88Z" transform="translate(-372.42 -40.38)"/><path id="Path_2758" data-name="Path 2758" class="cls-1" d="M372.71,796.11a1.28,1.28,0,0,1,2.56-.08v.08a1.28,1.28,0,0,1-2.56.07Z" transform="translate(-372.42 -40.38)"/><path id="Path_2759" data-name="Path 2759" class="cls-1" d="M372.74,775.19a1.28,1.28,0,1,1,2.55-.08v.07a1.28,1.28,0,1,1-2.55.08Z" transform="translate(-372.42 -40.38)"/><path id="Path_2760" data-name="Path 2760" class="cls-1" d="M372.76,754.26a1.28,1.28,0,0,1,2.55-.07v.07a1.28,1.28,0,1,1-2.55.08Z" transform="translate(-372.42 -40.38)"/><path id="Path_2761" data-name="Path 2761" class="cls-1" d="M372.78,733.34a1.28,1.28,0,0,1,2.56-.07v.07a1.28,1.28,0,0,1-2.56.07Z" transform="translate(-372.42 -40.38)"/><path id="Path_2762" data-name="Path 2762" class="cls-1" d="M372.81,712.42a1.28,1.28,0,0,1,1.24-1.31,1.27,1.27,0,0,1,1.31,1.24v.07a1.28,1.28,0,1,1-2.55.07Z" transform="translate(-372.42 -40.38)"/><path id="Path_2763" data-name="Path 2763" class="cls-1" d="M372.83,691.5a1.28,1.28,0,0,1,2.56-.07v.07a1.28,1.28,0,0,1-2.56.07Z" transform="translate(-372.42 -40.38)"/><path id="Path_2764" data-name="Path 2764" class="cls-1" d="M381.87,763.86a2.63,2.63,0,1,1,2.63,2.62A2.62,2.62,0,0,1,381.87,763.86Z" transform="translate(-372.42 -40.38)"/><path id="Path_2765" data-name="Path 2765" class="cls-1" d="M382,742.87a2.63,2.63,0,1,1,2.63,2.62A2.63,2.63,0,0,1,382,742.87Z" transform="translate(-372.42 -40.38)"/><path id="Path_2766" data-name="Path 2766" class="cls-1" d="M382.06,721.87a2.63,2.63,0,1,1,2.64,2.62A2.63,2.63,0,0,1,382.06,721.87Z" transform="translate(-372.42 -40.38)"/><path id="Path_2767" data-name="Path 2767" class="cls-1" d="M382.16,700.88a2.63,2.63,0,1,1,2.63,2.62A2.63,2.63,0,0,1,382.16,700.88Z" transform="translate(-372.42 -40.38)"/><path id="Path_2111" data-name="Path 2111" class="cls-1" d="M387.52,679.87a2.67,2.67,0,0,0-.92-2,2.62,2.62,0,0,0-2-.93,2.66,2.66,0,0,0-1.71,4.67,2.62,2.62,0,0,0,2,.93A2.65,2.65,0,0,0,387.52,679.87Z" transform="translate(-372.42 -40.38)"/><path id="Path_2768" data-name="Path 2768" class="cls-1" d="M401.63,722.42a6,6,0,1,1,12,0h0a6,6,0,1,1-12,0Z" transform="translate(-372.42 -40.38)"/><path id="Path_2769" data-name="Path 2769" class="cls-1" d="M401.6,743.2a6,6,0,1,1,12,0h0a6,6,0,0,1-12,0Z" transform="translate(-372.42 -40.38)"/><path id="Path_2770" data-name="Path 2770" class="cls-1" d="M401.58,764a6,6,0,1,1,12,0h0a6,6,0,0,1-12,0Z" transform="translate(-372.42 -40.38)"/><path id="Path_2771" data-name="Path 2771" class="cls-1" d="M401.55,784.74a6,6,0,0,1,12,0h0a6,6,0,1,1-12,0Z" transform="translate(-372.42 -40.38)"/><path id="Path_2112" data-name="Path 2112" class="cls-1" d="M413.5,805.5v-.15a6,6,0,0,0-12,0v.15a6,6,0,0,0,12,0Z" transform="translate(-372.42 -40.38)"/><path id="Path_2772" data-name="Path 2772" class="cls-1" d="M401.8,575.83a6,6,0,1,1,12,0h0a6,6,0,1,1-12,0Z" transform="translate(-372.42 -40.38)"/><path id="Path_2773" data-name="Path 2773" class="cls-1" d="M391.15,565.09a4.24,4.24,0,1,1,4.24,4.23A4.24,4.24,0,0,1,391.15,565.09Z" transform="translate(-372.42 -40.38)"/><path id="Path_2774" data-name="Path 2774" class="cls-1" d="M391.13,586.16a4.23,4.23,0,1,1,4.24,4.22A4.23,4.23,0,0,1,391.13,586.16Z" transform="translate(-372.42 -40.38)"/><path id="Path_2775" data-name="Path 2775" class="cls-1" d="M391.1,607.23a4.24,4.24,0,1,1,4.25,4.22A4.23,4.23,0,0,1,391.1,607.23Z" transform="translate(-372.42 -40.38)"/><path id="Path_2776" data-name="Path 2776" class="cls-1" d="M391.08,628.3a4.24,4.24,0,1,1,4.24,4.22A4.23,4.23,0,0,1,391.08,628.3Z" transform="translate(-372.42 -40.38)"/><path id="Path_2777" data-name="Path 2777" class="cls-1" d="M391.06,649.37a4.23,4.23,0,1,1,4.24,4.22A4.22,4.22,0,0,1,391.06,649.37Z" transform="translate(-372.42 -40.38)"/><path id="Path_2778" data-name="Path 2778" class="cls-1" d="M391,670.43a4.24,4.24,0,1,1,4.24,4.23A4.25,4.25,0,0,1,391,670.43Z" transform="translate(-372.42 -40.38)"/><path id="Path_2779" data-name="Path 2779" class="cls-1" d="M381.92,659a2.63,2.63,0,1,1,2.63,2.63A2.62,2.62,0,0,1,381.92,659Z" transform="translate(-372.42 -40.38)"/><path id="Path_2780" data-name="Path 2780" class="cls-1" d="M372.86,670.28a1.28,1.28,0,0,1,2.55-.07v.07a1.28,1.28,0,1,1-2.55.08Z" transform="translate(-372.42 -40.38)"/><path id="Path_2781" data-name="Path 2781" class="cls-1" d="M372.88,649.36a1.28,1.28,0,0,1,2.56-.07v.07a1.28,1.28,0,1,1-2.56.07Z" transform="translate(-372.42 -40.38)"/><path id="Path_2782" data-name="Path 2782" class="cls-1" d="M372.91,628.44a1.28,1.28,0,0,1,2.55-.07v.07a1.28,1.28,0,1,1-2.55.07Z" transform="translate(-372.42 -40.38)"/><path id="Path_2783" data-name="Path 2783" class="cls-1" d="M372.93,607.52a1.28,1.28,0,0,1,2.56-.07v.07a1.28,1.28,0,0,1-2.56.07Z" transform="translate(-372.42 -40.38)"/><path id="Path_2784" data-name="Path 2784" class="cls-1" d="M373,586.6a1.28,1.28,0,0,1,2.55-.07v.07a1.28,1.28,0,0,1-1.24,1.31,1.27,1.27,0,0,1-1.31-1.24Z" transform="translate(-372.42 -40.38)"/><path id="Path_2785" data-name="Path 2785" class="cls-1" d="M373,565.68a1.28,1.28,0,1,1,2.55-.07.08.08,0,0,1,0,.07,1.28,1.28,0,1,1-2.55.07Z" transform="translate(-372.42 -40.38)"/><path id="Path_2786" data-name="Path 2786" class="cls-1" d="M382,638a2.63,2.63,0,1,1,2.63,2.62A2.62,2.62,0,0,1,382,638Z" transform="translate(-372.42 -40.38)"/><path id="Path_2787" data-name="Path 2787" class="cls-1" d="M382.11,617a2.63,2.63,0,1,1,2.64,2.63A2.63,2.63,0,0,1,382.11,617Z" transform="translate(-372.42 -40.38)"/><path id="Path_2788" data-name="Path 2788" class="cls-1" d="M382.21,596.05a2.63,2.63,0,1,1,2.63,2.62A2.62,2.62,0,0,1,382.21,596.05Z" transform="translate(-372.42 -40.38)"/><path id="Path_2789" data-name="Path 2789" class="cls-1" d="M382.31,575.05a2.63,2.63,0,1,1,2.63,2.63A2.62,2.62,0,0,1,382.31,575.05Z" transform="translate(-372.42 -40.38)"/><path id="Path_2790" data-name="Path 2790" class="cls-1" d="M401.77,596.6a6,6,0,1,1,12,0h0a6,6,0,0,1-12,0Z" transform="translate(-372.42 -40.38)"/><path id="Path_2791" data-name="Path 2791" class="cls-1" d="M401.75,617.37a6,6,0,0,1,12,0h0a6,6,0,1,1-12,0Z" transform="translate(-372.42 -40.38)"/><path id="Path_2792" data-name="Path 2792" class="cls-1" d="M401.72,638.15a6,6,0,1,1,12,0h0a6,6,0,0,1-12,0Z" transform="translate(-372.42 -40.38)"/><path id="Path_2793" data-name="Path 2793" class="cls-1" d="M401.7,658.92a6,6,0,0,1,12,0h0a6,6,0,0,1-12,0Z" transform="translate(-372.42 -40.38)"/><path id="Path_2794" data-name="Path 2794" class="cls-1" d="M401.94,450.89a6,6,0,1,1,12,0h0a6,6,0,0,1-12,0Z" transform="translate(-372.42 -40.38)"/><path id="Path_2113" data-name="Path 2113" class="cls-1" d="M413.93,429.65c0-.13,0-.25,0-.37s0-.24,0-.37a6,6,0,0,0-12,0h0c0,.13,0,.25,0,.37s0,.25,0,.37a6,6,0,0,0,12,0Z" transform="translate(-372.42 -40.38)"/><path id="Path_2795" data-name="Path 2795" class="cls-1" d="M391.3,440.15a4.23,4.23,0,1,1,4.24,4.23A4.24,4.24,0,0,1,391.3,440.15Z" transform="translate(-372.42 -40.38)"/><path id="Path_2796" data-name="Path 2796" class="cls-1" d="M391.27,461.22a4.24,4.24,0,1,1,4.25,4.23A4.24,4.24,0,0,1,391.27,461.22Z" transform="translate(-372.42 -40.38)"/><path id="Path_2797" data-name="Path 2797" class="cls-1" d="M391.25,482.29a4.24,4.24,0,1,1,4.24,4.22A4.23,4.23,0,0,1,391.25,482.29Z" transform="translate(-372.42 -40.38)"/><path id="Path_2798" data-name="Path 2798" class="cls-1" d="M391.23,503.36a4.23,4.23,0,1,1,4.24,4.22A4.22,4.22,0,0,1,391.23,503.36Z" transform="translate(-372.42 -40.38)"/><path id="Path_2799" data-name="Path 2799" class="cls-1" d="M391.2,524.43a4.24,4.24,0,1,1,4.24,4.22A4.23,4.23,0,0,1,391.2,524.43Z" transform="translate(-372.42 -40.38)"/><path id="Path_2800" data-name="Path 2800" class="cls-1" d="M391.18,545.5a4.23,4.23,0,1,1,4.24,4.22A4.22,4.22,0,0,1,391.18,545.5Z" transform="translate(-372.42 -40.38)"/><path id="Path_2801" data-name="Path 2801" class="cls-1" d="M382.06,534.09a2.63,2.63,0,1,1,2.64,2.63A2.64,2.64,0,0,1,382.06,534.09Z" transform="translate(-372.42 -40.38)"/><path id="Path_2114" data-name="Path 2114" class="cls-1" d="M387.21,555.53a2.63,2.63,0,1,0-4.65-2.36,2.68,2.68,0,0,0-.45,1.48,2.62,2.62,0,0,0,5.1.88Z" transform="translate(-372.42 -40.38)"/><path id="Path_2802" data-name="Path 2802" class="cls-1" d="M373,545.35a1.28,1.28,0,0,1,2.56-.08v.08a1.28,1.28,0,0,1-2.56.07Z" transform="translate(-372.42 -40.38)"/><path id="Path_2803" data-name="Path 2803" class="cls-1" d="M373,524.42a1.28,1.28,0,0,1,2.55-.07v.07a1.28,1.28,0,1,1-2.55.08Z" transform="translate(-372.42 -40.38)"/><path id="Path_2804" data-name="Path 2804" class="cls-1" d="M373.05,503.5a1.28,1.28,0,0,1,2.56-.07v.07a1.28,1.28,0,1,1-2.56.07Z" transform="translate(-372.42 -40.38)"/><path id="Path_2805" data-name="Path 2805" class="cls-1" d="M373.08,482.58a1.28,1.28,0,0,1,2.55-.07v.07a1.28,1.28,0,1,1-2.55.07Z" transform="translate(-372.42 -40.38)"/><path id="Path_2806" data-name="Path 2806" class="cls-1" d="M373.1,461.66a1.28,1.28,0,0,1,2.56-.07v.07a1.28,1.28,0,0,1-2.56.07Z" transform="translate(-372.42 -40.38)"/><path id="Path_2807" data-name="Path 2807" class="cls-1" d="M373.13,440.74a1.28,1.28,0,0,1,2.55-.07v.07a1.28,1.28,0,0,1-1.24,1.31,1.27,1.27,0,0,1-1.31-1.24Z" transform="translate(-372.42 -40.38)"/><path id="Path_2808" data-name="Path 2808" class="cls-1" d="M382.16,513.1a2.63,2.63,0,1,1,2.63,2.62A2.62,2.62,0,0,1,382.16,513.1Z" transform="translate(-372.42 -40.38)"/><path id="Path_2809" data-name="Path 2809" class="cls-1" d="M382.26,492.11a2.63,2.63,0,1,1,2.63,2.62A2.63,2.63,0,0,1,382.26,492.11Z" transform="translate(-372.42 -40.38)"/><path id="Path_2810" data-name="Path 2810" class="cls-1" d="M382.36,471.11a2.63,2.63,0,1,1,2.63,2.62A2.62,2.62,0,0,1,382.36,471.11Z" transform="translate(-372.42 -40.38)"/><path id="Path_2811" data-name="Path 2811" class="cls-1" d="M382.45,450.11a2.63,2.63,0,1,1,2.64,2.63A2.63,2.63,0,0,1,382.45,450.11Z" transform="translate(-372.42 -40.38)"/><path id="Path_2115" data-name="Path 2115" class="cls-1" d="M387.81,429.11a3.19,3.19,0,0,0-2.92-2.94,2.66,2.66,0,0,0-1.71,4.67,2.63,2.63,0,0,0,4.63-1.73Z" transform="translate(-372.42 -40.38)"/><path id="Path_2812" data-name="Path 2812" class="cls-1" d="M401.92,471.66a6,6,0,0,1,12,0h0a6,6,0,0,1-12,0Z" transform="translate(-372.42 -40.38)"/><path id="Path_2813" data-name="Path 2813" class="cls-1" d="M401.89,492.44a6,6,0,0,1,12,0h0a6,6,0,1,1-12,0Z" transform="translate(-372.42 -40.38)"/><path id="Path_2814" data-name="Path 2814" class="cls-1" d="M401.87,513.21a6,6,0,1,1,12,0h0a6,6,0,0,1-12,0Z" transform="translate(-372.42 -40.38)"/><path id="Path_2815" data-name="Path 2815" class="cls-1" d="M401.85,534a6,6,0,1,1,12,0h0a6,6,0,1,1-12,0Z" transform="translate(-372.42 -40.38)"/><path id="Path_2116" data-name="Path 2116" class="cls-1" d="M413.79,554.73v-.14a6,6,0,1,0-12,0v.15a6,6,0,0,0,12,0Z" transform="translate(-372.42 -40.38)"/><path id="Path_2816" data-name="Path 2816" class="cls-1" d="M402.09,325.07a6,6,0,0,1,12,0h0a6,6,0,0,1-12,0Z" transform="translate(-372.42 -40.38)"/><path id="Path_2817" data-name="Path 2817" class="cls-1" d="M391.45,314.33a4.23,4.23,0,1,1,4.24,4.22A4.22,4.22,0,0,1,391.45,314.33Z" transform="translate(-372.42 -40.38)"/><path id="Path_2818" data-name="Path 2818" class="cls-1" d="M391.42,335.4a4.24,4.24,0,1,1,4.24,4.22A4.23,4.23,0,0,1,391.42,335.4Z" transform="translate(-372.42 -40.38)"/><path id="Path_2819" data-name="Path 2819" class="cls-1" d="M391.4,356.47a4.23,4.23,0,1,1,4.24,4.22A4.22,4.22,0,0,1,391.4,356.47Z" transform="translate(-372.42 -40.38)"/><path id="Path_2820" data-name="Path 2820" class="cls-1" d="M391.37,377.54a4.24,4.24,0,1,1,4.24,4.22A4.23,4.23,0,0,1,391.37,377.54Z" transform="translate(-372.42 -40.38)"/><path id="Path_2821" data-name="Path 2821" class="cls-1" d="M391.35,398.6a4.23,4.23,0,1,1,4.24,4.23A4.23,4.23,0,0,1,391.35,398.6Z" transform="translate(-372.42 -40.38)"/><path id="Path_2822" data-name="Path 2822" class="cls-1" d="M391.32,419.67a4.24,4.24,0,1,1,4.24,4.23A4.25,4.25,0,0,1,391.32,419.67Z" transform="translate(-372.42 -40.38)"/><path id="Path_2823" data-name="Path 2823" class="cls-1" d="M382.21,408.27a2.63,2.63,0,1,1,2.63,2.63A2.62,2.62,0,0,1,382.21,408.27Z" transform="translate(-372.42 -40.38)"/><path id="Path_2824" data-name="Path 2824" class="cls-1" d="M373.15,419.52a1.28,1.28,0,0,1,2.55-.07.08.08,0,0,1,0,.07,1.28,1.28,0,1,1-2.55.08Z" transform="translate(-372.42 -40.38)"/><path id="Path_2825" data-name="Path 2825" class="cls-1" d="M373.18,398.6a1.28,1.28,0,1,1,2.55-.07v.07a1.28,1.28,0,1,1-2.55.07A.08.08,0,0,1,373.18,398.6Z" transform="translate(-372.42 -40.38)"/><path id="Path_2826" data-name="Path 2826" class="cls-1" d="M373.2,377.68a1.28,1.28,0,0,1,2.55-.07v.07a1.28,1.28,0,1,1-2.55.07Z" transform="translate(-372.42 -40.38)"/><path id="Path_2827" data-name="Path 2827" class="cls-1" d="M373.22,356.76a1.28,1.28,0,0,1,2.56-.07v.07a1.28,1.28,0,0,1-2.56.07Z" transform="translate(-372.42 -40.38)"/><path id="Path_2828" data-name="Path 2828" class="cls-1" d="M373.25,335.84a1.28,1.28,0,0,1,2.55-.07v.07a1.28,1.28,0,0,1-2.55.07Z" transform="translate(-372.42 -40.38)"/><path id="Path_2829" data-name="Path 2829" class="cls-1" d="M373.27,314.92a1.28,1.28,0,1,1,2.56-.08v.08a1.28,1.28,0,0,1-2.56.07Z" transform="translate(-372.42 -40.38)"/><path id="Path_2830" data-name="Path 2830" class="cls-1" d="M382.31,387.28a2.63,2.63,0,1,1,2.63,2.62A2.64,2.64,0,0,1,382.31,387.28Z" transform="translate(-372.42 -40.38)"/><path id="Path_2831" data-name="Path 2831" class="cls-1" d="M382.41,366.28A2.63,2.63,0,1,1,385,368.9,2.62,2.62,0,0,1,382.41,366.28Z" transform="translate(-372.42 -40.38)"/><path id="Path_2832" data-name="Path 2832" class="cls-1" d="M382.5,345.29a2.63,2.63,0,1,1,2.64,2.62A2.64,2.64,0,0,1,382.5,345.29Z" transform="translate(-372.42 -40.38)"/><path id="Path_2833" data-name="Path 2833" class="cls-1" d="M382.6,324.29a2.63,2.63,0,1,1,2.63,2.62A2.62,2.62,0,0,1,382.6,324.29Z" transform="translate(-372.42 -40.38)"/><path id="Path_2834" data-name="Path 2834" class="cls-1" d="M402.06,345.84a6,6,0,1,1,12,0h0a6,6,0,0,1-12,0Z" transform="translate(-372.42 -40.38)"/><path id="Path_2835" data-name="Path 2835" class="cls-1" d="M402,366.61a6,6,0,0,1,12,0h0a6,6,0,1,1-12,0Z" transform="translate(-372.42 -40.38)"/><path id="Path_2836" data-name="Path 2836" class="cls-1" d="M402,387.39a6,6,0,1,1,12,0h0a6,6,0,1,1-12,0Z" transform="translate(-372.42 -40.38)"/><path id="Path_2837" data-name="Path 2837" class="cls-1" d="M402,408.16a6,6,0,0,1,12,0h0a6,6,0,0,1-12,0Z" transform="translate(-372.42 -40.38)"/><path id="Path_2838" data-name="Path 2838" class="cls-1" d="M402.23,200.13a6,6,0,0,1,12,0h0a6,6,0,1,1-12,0Z" transform="translate(-372.42 -40.38)"/><path id="Path_2117" data-name="Path 2117" class="cls-1" d="M414.23,178.89a2.23,2.23,0,0,0,0-.37c0-.12,0-.24,0-.37a6,6,0,0,0-12,0c0,.13,0,.25,0,.37s0,.25,0,.37a6,6,0,0,0,12,0Z" transform="translate(-372.42 -40.38)"/><path id="Path_2839" data-name="Path 2839" class="cls-1" d="M391.59,189.39a4.24,4.24,0,1,1,4.24,4.23A4.24,4.24,0,0,1,391.59,189.39Z" transform="translate(-372.42 -40.38)"/><path id="Path_2840" data-name="Path 2840" class="cls-1" d="M391.57,210.46a4.23,4.23,0,1,1,4.24,4.23A4.22,4.22,0,0,1,391.57,210.46Z" transform="translate(-372.42 -40.38)"/><path id="Path_2841" data-name="Path 2841" class="cls-1" d="M391.54,231.53a4.24,4.24,0,1,1,4.24,4.22A4.23,4.23,0,0,1,391.54,231.53Z" transform="translate(-372.42 -40.38)"/><path id="Path_2842" data-name="Path 2842" class="cls-1" d="M391.52,252.6a4.23,4.23,0,1,1,4.24,4.22A4.23,4.23,0,0,1,391.52,252.6Z" transform="translate(-372.42 -40.38)"/><path id="Path_2843" data-name="Path 2843" class="cls-1" d="M391.49,273.67a4.24,4.24,0,1,1,4.24,4.22A4.23,4.23,0,0,1,391.49,273.67Z" transform="translate(-372.42 -40.38)"/><path id="Path_2844" data-name="Path 2844" class="cls-1" d="M391.47,294.74a4.23,4.23,0,1,1,4.24,4.22A4.24,4.24,0,0,1,391.47,294.74Z" transform="translate(-372.42 -40.38)"/><path id="Path_2845" data-name="Path 2845" class="cls-1" d="M382.36,283.33A2.63,2.63,0,1,1,385,286,2.62,2.62,0,0,1,382.36,283.33Z" transform="translate(-372.42 -40.38)"/><path id="Path_2118" data-name="Path 2118" class="cls-1" d="M387.51,304.77a2.71,2.71,0,0,0,.45-1.48,2.62,2.62,0,0,0-5.11-.88,2.57,2.57,0,0,0-.44,1.48,2.62,2.62,0,0,0,5.1.88Z" transform="translate(-372.42 -40.38)"/><path id="Path_2846" data-name="Path 2846" class="cls-1" d="M373.3,294.58a1.28,1.28,0,0,1,2.55-.07v.07a1.28,1.28,0,1,1-2.55.08Z" transform="translate(-372.42 -40.38)"/><path id="Path_2847" data-name="Path 2847" class="cls-1" d="M373.32,273.66a1.28,1.28,0,1,1,2.55-.07v.07a1.28,1.28,0,1,1-2.55.07Z" transform="translate(-372.42 -40.38)"/><path id="Path_2848" data-name="Path 2848" class="cls-1" d="M373.34,252.74a1.28,1.28,0,0,1,2.56-.07v.07a1.28,1.28,0,0,1-2.56.07Z" transform="translate(-372.42 -40.38)"/><path id="Path_2849" data-name="Path 2849" class="cls-1" d="M373.37,231.82a1.28,1.28,0,0,1,2.55-.07v.07a1.28,1.28,0,1,1-2.55.07Z" transform="translate(-372.42 -40.38)"/><path id="Path_2850" data-name="Path 2850" class="cls-1" d="M373.39,210.9a1.28,1.28,0,0,1,2.56-.07v.07a1.28,1.28,0,0,1-2.56.07Z" transform="translate(-372.42 -40.38)"/><path id="Path_2851" data-name="Path 2851" class="cls-1" d="M373.42,190a1.28,1.28,0,1,1,2.55-.07V190a1.28,1.28,0,0,1-2.55.07Z" transform="translate(-372.42 -40.38)"/><path id="Path_2852" data-name="Path 2852" class="cls-1" d="M382.45,262.34a2.63,2.63,0,1,1,2.64,2.62A2.63,2.63,0,0,1,382.45,262.34Z" transform="translate(-372.42 -40.38)"/><path id="Path_2853" data-name="Path 2853" class="cls-1" d="M382.55,241.34a2.63,2.63,0,1,1,2.63,2.63A2.62,2.62,0,0,1,382.55,241.34Z" transform="translate(-372.42 -40.38)"/><path id="Path_2854" data-name="Path 2854" class="cls-1" d="M382.65,220.35a2.63,2.63,0,1,1,2.63,2.62A2.62,2.62,0,0,1,382.65,220.35Z" transform="translate(-372.42 -40.38)"/><path id="Path_2855" data-name="Path 2855" class="cls-1" d="M382.75,199.35a2.63,2.63,0,1,1,2.63,2.63A2.62,2.62,0,0,1,382.75,199.35Z" transform="translate(-372.42 -40.38)"/><path id="Path_2119" data-name="Path 2119" class="cls-1" d="M388.1,178.35a2.65,2.65,0,0,0-.92-2,2.61,2.61,0,0,0-2-.92,2.66,2.66,0,0,0-1.71,4.67,2.59,2.59,0,0,0,2,.93A2.65,2.65,0,0,0,388.1,178.35Z" transform="translate(-372.42 -40.38)"/><path id="Path_2856" data-name="Path 2856" class="cls-1" d="M402.21,220.9a6,6,0,0,1,12,0h0a6,6,0,0,1-12,0Z" transform="translate(-372.42 -40.38)"/><path id="Path_2857" data-name="Path 2857" class="cls-1" d="M402.19,241.67a6,6,0,1,1,12,0h0a6,6,0,1,1-12,0Z" transform="translate(-372.42 -40.38)"/><path id="Path_2858" data-name="Path 2858" class="cls-1" d="M402.16,262.45a6,6,0,1,1,12,0h0a6,6,0,0,1-12,0Z" transform="translate(-372.42 -40.38)"/><path id="Path_2859" data-name="Path 2859" class="cls-1" d="M402.14,283.22a6,6,0,1,1,12,0h0a6,6,0,1,1-12,0Z" transform="translate(-372.42 -40.38)"/><path id="Path_2120" data-name="Path 2120" class="cls-1" d="M414.08,304v-.14a6,6,0,1,0-12,0V304a6,6,0,1,0,12,0Z" transform="translate(-372.42 -40.38)"/><path id="Path_2860" data-name="Path 2860" class="cls-1" d="M402.38,74.3a6,6,0,0,1,12,0h0a6,6,0,1,1-12,0Z" transform="translate(-372.42 -40.38)"/><path id="Path_2861" data-name="Path 2861" class="cls-1" d="M402.41,53.09a6,6,0,1,1,12,0h0a6,6,0,1,1-12,0Z" transform="translate(-372.42 -40.38)"/><path id="Path_2862" data-name="Path 2862" class="cls-1" d="M391.74,63.57A4.23,4.23,0,1,1,396,67.79,4.23,4.23,0,0,1,391.74,63.57Z" transform="translate(-372.42 -40.38)"/><path id="Path_2863" data-name="Path 2863" class="cls-1" d="M391.71,84.64A4.24,4.24,0,1,1,396,88.86,4.23,4.23,0,0,1,391.71,84.64Z" transform="translate(-372.42 -40.38)"/><path id="Path_2864" data-name="Path 2864" class="cls-1" d="M391.69,105.71a4.23,4.23,0,1,1,4.24,4.22A4.23,4.23,0,0,1,391.69,105.71Z" transform="translate(-372.42 -40.38)"/><path id="Path_2865" data-name="Path 2865" class="cls-1" d="M391.66,126.78a4.24,4.24,0,1,1,4.25,4.22A4.25,4.25,0,0,1,391.66,126.78Z" transform="translate(-372.42 -40.38)"/><path id="Path_2866" data-name="Path 2866" class="cls-1" d="M391.64,147.84a4.23,4.23,0,1,1,4.24,4.23A4.24,4.24,0,0,1,391.64,147.84Z" transform="translate(-372.42 -40.38)"/><path id="Path_2867" data-name="Path 2867" class="cls-1" d="M391.62,168.91a4.23,4.23,0,1,1,4.24,4.23A4.23,4.23,0,0,1,391.62,168.91Z" transform="translate(-372.42 -40.38)"/><path id="Path_2868" data-name="Path 2868" class="cls-1" d="M382.5,157.51a2.63,2.63,0,1,1,2.64,2.62A2.63,2.63,0,0,1,382.5,157.51Z" transform="translate(-372.42 -40.38)"/><path id="Path_2869" data-name="Path 2869" class="cls-1" d="M373.44,168.76a1.28,1.28,0,0,1,2.56-.07v.07a1.28,1.28,0,0,1-2.56.07Z" transform="translate(-372.42 -40.38)"/><path id="Path_2870" data-name="Path 2870" class="cls-1" d="M373.47,147.84a1.28,1.28,0,0,1,2.55-.07v.07a1.28,1.28,0,1,1-2.55.07Z" transform="translate(-372.42 -40.38)"/><path id="Path_2871" data-name="Path 2871" class="cls-1" d="M373.49,126.92a1.28,1.28,0,0,1,2.56-.07v.07a1.28,1.28,0,0,1-2.56.07Z" transform="translate(-372.42 -40.38)"/><path id="Path_2872" data-name="Path 2872" class="cls-1" d="M373.52,106a1.28,1.28,0,1,1,2.55-.07V106a1.28,1.28,0,1,1-2.55.07Z" transform="translate(-372.42 -40.38)"/><path id="Path_2873" data-name="Path 2873" class="cls-1" d="M373.54,85.08a1.28,1.28,0,1,1,2.55-.08v.08a1.28,1.28,0,1,1-2.55.07Z" transform="translate(-372.42 -40.38)"/><path id="Path_2874" data-name="Path 2874" class="cls-1" d="M373.56,64.16a1.28,1.28,0,0,1,2.56-.08v.07a1.28,1.28,0,0,1-2.56.08Z" transform="translate(-372.42 -40.38)"/><path id="Path_2875" data-name="Path 2875" class="cls-1" d="M382.6,136.52a2.63,2.63,0,1,1,2.63,2.62A2.63,2.63,0,0,1,382.6,136.52Z" transform="translate(-372.42 -40.38)"/><path id="Path_2876" data-name="Path 2876" class="cls-1" d="M382.7,115.52a2.63,2.63,0,1,1,2.63,2.62A2.62,2.62,0,0,1,382.7,115.52Z" transform="translate(-372.42 -40.38)"/><path id="Path_2877" data-name="Path 2877" class="cls-1" d="M382.79,94.53a2.63,2.63,0,1,1,2.64,2.62A2.64,2.64,0,0,1,382.79,94.53Z" transform="translate(-372.42 -40.38)"/><path id="Path_2878" data-name="Path 2878" class="cls-1" d="M382.89,73.53a2.63,2.63,0,1,1,2.63,2.62A2.63,2.63,0,0,1,382.89,73.53Z" transform="translate(-372.42 -40.38)"/><path id="Path_2879" data-name="Path 2879" class="cls-1" d="M383,52.54a2.63,2.63,0,1,1,2.63,2.62A2.63,2.63,0,0,1,383,52.54Z" transform="translate(-372.42 -40.38)"/><path id="Path_2880" data-name="Path 2880" class="cls-1" d="M402.36,95.08a6,6,0,1,1,12,0h0a6,6,0,0,1-12,0Z" transform="translate(-372.42 -40.38)"/><path id="Path_2881" data-name="Path 2881" class="cls-1" d="M402.33,115.85a6,6,0,0,1,12,0h0a6,6,0,0,1-12,0Z" transform="translate(-372.42 -40.38)"/><path id="Path_2882" data-name="Path 2882" class="cls-1" d="M402.31,136.63a6,6,0,0,1,12,0h0a6,6,0,0,1-12,0Z" transform="translate(-372.42 -40.38)"/><path id="Path_2883" data-name="Path 2883" class="cls-1" d="M402.28,157.4a6,6,0,1,1,12,0h0a6,6,0,0,1-12,0Z" transform="translate(-372.42 -40.38)"/><path id="Path_2121" data-name="Path 2121" class="cls-1" d="M435.26,41.7h-.15a12.14,12.14,0,0,0-12.05,12.17,12.32,12.32,0,0,0,.1,1.61,8.55,8.55,0,0,0,.79,17A12.07,12.07,0,0,0,424,76a8.55,8.55,0,0,0-.1,17.07,12.14,12.14,0,0,0,0,3.56,8.55,8.55,0,0,0-.21,17.06,12.56,12.56,0,0,0,.08,3.57,8.55,8.55,0,0,0-.21,17,12.7,12.7,0,0,0,0,3.59,8.55,8.55,0,0,0-.13,17,12.13,12.13,0,0,0-.07,3.61,8.56,8.56,0,0,0-.27,17v0a12.33,12.33,0,0,1-.15,4.11,12.58,12.58,0,0,0,.1,1.62,8.55,8.55,0,0,0,.79,17,12.07,12.07,0,0,0,0,3.55,8.55,8.55,0,0,0-.1,17.08,12.42,12.42,0,0,0,0,3.55,8.55,8.55,0,0,0-.19,17.06,12.21,12.21,0,0,0,.08,3.57,8.55,8.55,0,0,0-.21,17.05,12,12,0,0,0,0,3.59,8.55,8.55,0,0,0-.13,17,12.2,12.2,0,0,0-.08,3.62,8.55,8.55,0,0,0-.26,17v0c0,.36,0,.71,0,1.06a12.35,12.35,0,0,0-.09,3.79,8.55,8.55,0,0,0,.79,17,12.14,12.14,0,0,0,0,3.56,8.55,8.55,0,0,0-.1,17.07,12.07,12.07,0,0,0,0,3.55,8.55,8.55,0,0,0-.21,17.06,12.63,12.63,0,0,0,.08,3.58,8.55,8.55,0,0,0-.21,17,12.77,12.77,0,0,0,0,3.6,8.55,8.55,0,0,0-.13,17,12.21,12.21,0,0,0-.07,3.62,8.55,8.55,0,0,0-.27,17v0a12.35,12.35,0,0,1-.15,4.11,12.32,12.32,0,0,0,.1,1.61,8.55,8.55,0,0,0,.79,17,12.07,12.07,0,0,0,0,3.55,8.55,8.55,0,0,0-.1,17.07,12.49,12.49,0,0,0,0,3.56,8.55,8.55,0,0,0-.21,17.06,12.21,12.21,0,0,0,.09,3.57,8.55,8.55,0,0,0-.22,17,12,12,0,0,0,0,3.59,8.55,8.55,0,0,0-.13,17,12.48,12.48,0,0,0-.08,3.61,8.56,8.56,0,0,0-.26,17v0c0,.36,0,.71.05,1.06a12.3,12.3,0,0,0-.1,3.78,8.55,8.55,0,0,0,.79,17,12.42,12.42,0,0,0,0,3.55,8.55,8.55,0,0,0-.09,17.07,12.14,12.14,0,0,0,0,3.56,8.55,8.55,0,0,0-.2,17.06,12.21,12.21,0,0,0,.08,3.57,8.55,8.55,0,0,0-.22,17,12.7,12.7,0,0,0,0,3.59,8.55,8.55,0,0,0-.12,17,12.2,12.2,0,0,0-.08,3.62,8.55,8.55,0,0,0-.27,17v0a12.6,12.6,0,0,0,.11,1.62,12.33,12.33,0,0,0-.16,4.11,8.55,8.55,0,0,0,.79,17,12.49,12.49,0,0,0,0,3.56,8.55,8.55,0,0,0-.09,17.07,12.07,12.07,0,0,0,0,3.55,8.55,8.55,0,0,0-.2,17.07,12.21,12.21,0,0,0,.08,3.57,8.55,8.55,0,0,0-.21,17,12,12,0,0,0,0,3.59,8.55,8.55,0,0,0-.13,17,12.2,12.2,0,0,0-.07,3.62,8.55,8.55,0,0,0-.27,17v0c0,.36,0,.71.05,1.07a12,12,0,0,0-.09,3.78,8.55,8.55,0,0,0,.78,17,12.49,12.49,0,0,0,0,3.56A8.55,8.55,0,0,0,423,845.4a12.07,12.07,0,0,0,0,3.55,8.55,8.55,0,0,0-.2,17.06,12.21,12.21,0,0,0,.08,3.57,8.55,8.55,0,0,0-.21,17,12.07,12.07,0,0,0,0,3.6,8.55,8.55,0,0,0-.13,17,12.55,12.55,0,0,0-.08,3.62,8.55,8.55,0,0,0-.26,17v0a29.24,29.24,0,0,1-.05,5.73,8.55,8.55,0,0,0,.79,17,12.07,12.07,0,0,0,0,3.55,8.55,8.55,0,0,0-.1,17.07,12.14,12.14,0,0,0,0,3.56,8.55,8.55,0,0,0-.21,17.06,12.56,12.56,0,0,0,.08,3.57,8.55,8.55,0,0,0-.21,17.05,12.7,12.7,0,0,0,0,3.59,8.55,8.55,0,0,0-.13,17,12.13,12.13,0,0,0-.07,3.61,8.56,8.56,0,0,0-.27,17v0a12,12,0,0,0,12,12.11h688.46L1123.7,40.38l-688.44,1.3Z" transform="translate(-372.42 -40.38)"/></svg>