<svg id="Layer_1" data-name="Layer 1" xmlns="http://www.w3.org/2000/svg" viewBox="0 0 43 43"><defs><style>.cls-1{fill:#fff;}</style></defs><g id="Group_27" data-name="Group 27"><circle id="Ellipse_2" data-name="Ellipse 2" cx="21.5" cy="21.5" r="21.5"/><g id="Icon_ionic-logo-instagram" data-name="Icon ionic-logo-instagram"><path id="Path_80" data-name="Path 80" class="cls-1" d="M937.09,528.65a5.64,5.64,0,0,1,5.62,5.62v11.25a5.64,5.64,0,0,1-5.62,5.63H925.84a5.64,5.64,0,0,1-5.63-5.63V534.27a5.64,5.64,0,0,1,5.63-5.62h11.25m0-2.25H925.84a7.9,7.9,0,0,0-7.88,7.87v11.25a7.91,7.91,0,0,0,7.88,7.88h11.25a7.9,7.9,0,0,0,7.87-7.88V534.27A7.89,7.89,0,0,0,937.09,526.4Z" transform="translate(-909.96 -518.4)"/><path id="Path_81" data-name="Path 81" class="cls-1" d="M938.77,534.27a1.69,1.69,0,1,1,1.69-1.69h0a1.68,1.68,0,0,1-1.68,1.68Z" transform="translate(-909.96 -518.4)"/><path id="Path_82" data-name="Path 82" class="cls-1" d="M931.46,535.4a4.5,4.5,0,1,1-4.5,4.5,4.49,4.49,0,0,1,4.5-4.5m0-2.25a6.75,6.75,0,1,0,6.75,6.75A6.75,6.75,0,0,0,931.46,533.15Z" transform="translate(-909.96 -518.4)"/></g></g></svg>