<svg id="Layer_1" data-name="Layer 1" xmlns="http://www.w3.org/2000/svg" viewBox="0 0 43 43"><defs><style>.cls-1{fill:#fff;}</style></defs><circle id="Ellipse_3" data-name="Ellipse 3" cx="21.5" cy="21.5" r="21.5"/><path id="Icon_awesome-youtube" data-name="Icon awesome-youtube" class="cls-1" d="M974.42,533.37A3.39,3.39,0,0,0,972,531c-2.11-.57-10.56-.57-10.56-.57s-8.45,0-10.56.57a3.41,3.41,0,0,0-2.39,2.4,38.53,38.53,0,0,0,0,13.09,3.35,3.35,0,0,0,2.39,2.37c2.11.57,10.56.57,10.56.57s8.45,0,10.56-.57a3.34,3.34,0,0,0,2.38-2.37,37.86,37.86,0,0,0,0-13.09Zm-15.71,10.56v-8l7.06,4Z" transform="translate(-938.96 -518.4)"/></svg>